<?xml version="1.0" encoding="UTF-8" standalone="no"?>
<!-- Created with Inkscape (http://www.inkscape.org/) -->

<svg
   width="800"
   height="450"
   viewBox="0 0 800 450"
   version="1.1"
   id="svg1"
   sodipodi:docname="NixOS.svg"
   inkscape:version="1.4.3 (0d15f75042, 2025-12-25)"
   xmlns:inkscape="http://www.inkscape.org/namespaces/inkscape"
   xmlns:sodipodi="http://sodipodi.sourceforge.net/DTD/sodipodi-0.dtd"
   xmlns:xlink="http://www.w3.org/1999/xlink"
   xmlns="http://www.w3.org/2000/svg"
   xmlns:svg="http://www.w3.org/2000/svg">
  <sodipodi:namedview
     id="namedview1"
     pagecolor="#ffffff"
     bordercolor="#000000"
     borderopacity="0.25"
     inkscape:showpageshadow="2"
     inkscape:pageopacity="0.0"
     inkscape:pagecheckerboard="true"
     inkscape:deskcolor="#d1d1d1"
     inkscape:document-units="px"
     inkscape:zoom="1.1058785"
     inkscape:cx="320.55963"
     inkscape:cy="191.7028"
     inkscape:window-width="1900"
     inkscape:window-height="1026"
     inkscape:window-x="0"
     inkscape:window-y="0"
     inkscape:window-maximized="0"
     inkscape:current-layer="g268"
     showguides="true" />
  <defs
     id="defs1">
    <linearGradient
       id="swatch295"
       inkscape:swatch="solid">
      <stop
         style="stop-color:#4d6fb7;stop-opacity:1;"
         offset="0"
         id="stop295" />
    </linearGradient>
    <linearGradient
       id="swatch293"
       inkscape:swatch="solid">
      <stop
         style="stop-color:#4d6fb7;stop-opacity:1;"
         offset="0"
         id="stop293" />
    </linearGradient>
    <inkscape:path-effect
       effect="fillet_chamfer"
       id="path-effect277"
       is_visible="true"
       lpeversion="1"
       nodesatellites_param="F,0,0,1,0,28,0,1 @ F,0,0,1,0,28,0,1 @ F,0,0,1,0,28,0,1 @ F,0,0,1,0,28,0,1 @ F,0,0,1,0,28,0,1 @ F,0,0,1,0,28,0,1 @ F,0,0,1,0,28,0,1 @ F,0,0,1,0,28,0,1 @ F,0,0,1,0,28,0,1"
       radius="28"
       unit="px"
       method="auto"
       mode="F"
       chamfer_steps="1"
       flexible="false"
       use_knot_distance="true"
       apply_no_radius="true"
       apply_with_radius="true"
       only_selected="false"
       hide_knots="false" />
    <inkscape:path-effect
       effect="fillet_chamfer"
       id="path-effect275"
       is_visible="true"
       lpeversion="1"
       nodesatellites_param="F,0,0,1,0,28,0,1 @ F,0,0,1,0,28,0,1 @ F,0,0,1,0,28,0,1 @ F,0,0,1,0,28,0,1 @ F,0,0,1,0,28,0,1 @ F,0,0,1,0,28,0,1 @ F,0,0,1,0,28,0,1 @ F,0,0,1,0,28,0,1 @ F,0,0,1,0,28,0,1"
       radius="28"
       unit="px"
       method="auto"
       mode="F"
       chamfer_steps="1"
       flexible="false"
       use_knot_distance="true"
       apply_no_radius="true"
       apply_with_radius="true"
       only_selected="false"
       hide_knots="false" />
    <inkscape:path-effect
       effect="fillet_chamfer"
       id="path-effect273"
       is_visible="true"
       lpeversion="1"
       nodesatellites_param="F,0,0,1,0,28,0,1 @ F,0,0,1,0,28,0,1 @ F,0,0,1,0,28,0,1 @ F,0,0,1,0,28,0,1 @ F,0,0,1,0,28,0,1 @ F,0,0,1,0,28,0,1 @ F,0,0,1,0,28,0,1 @ F,0,0,1,0,28,0,1 @ F,0,0,1,0,28,0,1"
       radius="28"
       unit="px"
       method="auto"
       mode="F"
       chamfer_steps="1"
       flexible="false"
       use_knot_distance="true"
       apply_no_radius="true"
       apply_with_radius="true"
       only_selected="false"
       hide_knots="false" />
    <inkscape:path-effect
       effect="fillet_chamfer"
       id="path-effect271"
       is_visible="true"
       lpeversion="1"
       nodesatellites_param="F,0,0,1,0,28,0,1 @ F,0,0,1,0,28,0,1 @ F,0,0,1,0,28,0,1 @ F,0,0,1,0,28,0,1 @ F,0,0,1,0,28,0,1 @ F,0,0,1,0,28,0,1 @ F,0,0,1,0,28,0,1 @ F,0,0,1,0,28,0,1 @ F,0,0,1,0,28,0,1"
       radius="28"
       unit="px"
       method="auto"
       mode="F"
       chamfer_steps="1"
       flexible="false"
       use_knot_distance="true"
       apply_no_radius="true"
       apply_with_radius="true"
       only_selected="false"
       hide_knots="false" />
    <inkscape:path-effect
       effect="fillet_chamfer"
       id="path-effect269"
       is_visible="true"
       lpeversion="1"
       nodesatellites_param="F,0,0,1,0,28,0,1 @ F,0,0,1,0,28,0,1 @ F,0,0,1,0,28,0,1 @ F,0,0,1,0,28,0,1 @ F,0,0,1,0,28,0,1 @ F,0,0,1,0,28,0,1 @ F,0,0,1,0,28,0,1 @ F,0,0,1,0,28,0,1 @ F,0,0,1,0,28,0,1"
       radius="28"
       unit="px"
       method="auto"
       mode="F"
       chamfer_steps="1"
       flexible="false"
       use_knot_distance="true"
       apply_no_radius="true"
       apply_with_radius="true"
       only_selected="false"
       hide_knots="false" />
    <linearGradient
       id="swatch6"
       inkscape:swatch="solid">
      <stop
         style="stop-color:#000000;stop-opacity:1;"
         offset="0"
         id="stop9" />
    </linearGradient>
    <linearGradient
       id="swatch37"
       inkscape:swatch="solid">
      <stop
         style="stop-color:#ffffff;stop-opacity:1;"
         offset="0"
         id="stop37" />
    </linearGradient>
    <linearGradient
       id="swatch116"
       inkscape:swatch="solid">
      <stop
         style="stop-color:#ffffff;stop-opacity:1;"
         offset="0"
         id="stop116" />
    </linearGradient>
    <linearGradient
       id="swatch171"
       inkscape:swatch="solid">
      <stop
         style="stop-color:#77b6e1;stop-opacity:1;"
         offset="0"
         id="stop171" />
    </linearGradient>
    <linearGradient
       id="swatch170"
       inkscape:swatch="solid">
      <stop
         style="stop-color:#4d6fb7;stop-opacity:1;"
         offset="0"
         id="stop170" />
    </linearGradient>
    <linearGradient
       id="linearGradient166"
       inkscape:swatch="gradient"
       inkscape:label="Shaded background">
      <stop
         style="stop-color:#5bbddb;stop-opacity:1;"
         offset="0"
         id="stop166" />
      <stop
         style="stop-color:#5b80db;stop-opacity:1;"
         offset="0.66313559"
         id="stop167" />
      <stop
         style="stop-color:#2e59c3;stop-opacity:1;"
         offset="1"
         id="stop169" />
    </linearGradient>
    <linearGradient
       id="swatch131"
       inkscape:swatch="solid">
      <stop
         style="stop-color:#51cdf5;stop-opacity:1;"
         offset="0"
         id="stop131" />
    </linearGradient>
    <linearGradient
       id="swatch128"
       inkscape:swatch="solid">
      <stop
         style="stop-color:#4951de;stop-opacity:1;"
         offset="0"
         id="stop128" />
    </linearGradient>
    <linearGradient
       id="swatch127"
       inkscape:swatch="solid">
      <stop
         style="stop-color:#000000;stop-opacity:1;"
         offset="0"
         id="stop127" />
    </linearGradient>
    <linearGradient
       id="swatch126"
       inkscape:swatch="solid">
      <stop
         style="stop-color:#4951de;stop-opacity:1;"
         offset="0"
         id="stop126" />
    </linearGradient>
    <linearGradient
       id="linearGradient5"
       inkscape:swatch="gradient">
      <stop
         style="stop-color:#3e5993;stop-opacity:1;"
         offset="0"
         id="stop7" />
      <stop
         style="stop-color:#3e5993;stop-opacity:0;"
         offset="1"
         id="stop8" />
    </linearGradient>
    <linearGradient
       inkscape:collect="always"
       xlink:href="#swatch171"
       id="linearGradient174"
       x1="491.11542"
       y1="307.24182"
       x2="524.22479"
       y2="307.24182"
       gradientUnits="userSpaceOnUse" />
    <linearGradient
       inkscape:collect="always"
       xlink:href="#swatch171"
       id="linearGradient176"
       x1="699.11566"
       y1="308.13782"
       x2="736.32098"
       y2="308.13782"
       gradientUnits="userSpaceOnUse" />
    <linearGradient
       inkscape:collect="always"
       xlink:href="#swatch170"
       id="linearGradient9-0"
       x1="23.040956"
       y1="386.7724"
       x2="77.508423"
       y2="386.7724"
       gradientUnits="userSpaceOnUse" />
    <linearGradient
       inkscape:collect="always"
       xlink:href="#swatch171"
       id="linearGradient355"
       gradientUnits="userSpaceOnUse"
       x1="23.040956"
       y1="386.7724"
       x2="77.508423"
       y2="386.7724" />
    <linearGradient
       inkscape:collect="always"
       xlink:href="#linearGradient166"
       id="linearGradient14"
       gradientTransform="scale(1.3938269,0.71744923)"
       x1="66.355736"
       y1="180.26642"
       x2="509.81436"
       y2="180.26642"
       gradientUnits="userSpaceOnUse" />
  </defs>
  <g
     inkscape:groupmode="layer"
     id="g155"
     inkscape:label="Kawaii background"
     style="display:inline"
     transform="matrix(1.0896051,0,0,1.0896051,-32.762987,-82.792771)">
    <path
       d="m 195.0836,129.34766 c -1.53151,0.068 -3.05523,0.36142 -4.50781,0.85938 -2.58236,0.88525 -4.94139,2.41751 -6.73633,4.47656 l -5.75195,6.5918 -0.002,0.004 c -3.58913,4.11839 -4.77734,10.18975 -3.00586,15.35743 l 3.5039,10.2246 -10.60156,-2.07812 h -0.004 c -5.36165,-1.05056 -11.21604,0.95413 -14.80665,5.07227 l -0.002,0.002 -15.9707,18.32031 c -2.68834,3.08432 -3.58039,7.63343 -2.25391,11.50391 1.32649,3.87048 4.8189,6.9162 8.83399,7.70312 h 0.002 l 25.87109,5.06836 -15.85937,18.18945 -36.92383,-7.23242 -0.004,-0.002 c -5.36164,-1.05056 -11.21603,0.95414 -14.80663,5.07227 v 0.002 l -5.750001,6.59765 c -3.589838,4.1179 -4.780528,10.18938 -3.009766,15.35743 l 0.002,0.002 2.835938,8.27734 c 1.770964,5.16746 6.434479,9.23219 11.794919,10.28321 l 0.002,0.002 10.60743,2.07617 -7.10157,8.14649 c -3.58984,4.11789 -4.78052,10.19132 -3.00976,15.35937 l 7.8789,22.99414 c 1.32689,3.87159 4.82337,6.9172 8.83985,7.70313 4.01531,0.7857 8.39743,-0.71865 11.08593,-3.80274 l 0.004,-0.002 17.32031,-19.86719 7.82227,22.82813 -24.72852,28.36523 h -0.002 c -3.58912,4.11839 -4.77734,10.19171 -3.00586,15.35938 l 2.83594,8.27539 v 0.004 c 1.77208,5.16789 6.43926,9.23177 11.80078,10.28125 l -0.004,0.002 8.58789,1.68164 h 0.002 c 5.36138,1.04953 11.21481,-0.95612 14.80468,-5.07422 l 7.09961,-8.14649 3.50586,10.22657 c 1.77195,5.16749 6.43782,9.23334 11.79883,10.2832 l 23.84766,4.67187 c 4.01656,0.78831 8.40377,-0.71367 11.09375,-3.79882 2.68963,-3.08476 3.5793,-7.63445 2.25195,-11.50586 v -0.002 l -8.54492,-24.93554 23.67969,4.63867 12.20117,35.59961 c 1.28299,3.74362 4.10935,6.86658 7.59375,8.72656 -0.148,0.0532 -0.35489,0.10356 -0.48633,0.1543 l -0.0801,0.0312 c -0.49656,0.19095 -0.97667,0.42219 -1.43554,0.6914 -2.51201,1.47805 -4.40637,3.3606 -5.875,6.02149 -1.46864,2.66089 -2.60253,6.74538 -0.92188,11.09961 0.11378,0.29477 0.19344,0.33742 0.30859,0.60547 -0.26838,1.8746 -0.13266,3.80352 0.42188,5.24023 l 0.0156,0.041 c 0.0668,0.17126 0.13846,0.3406 0.21485,0.50781 l 0.47851,1.06055 -0.0352,-0.084 c 0.61795,1.36019 1.70156,2.75273 3.30273,3.95508 0.0162,0.0426 0.0246,0.0844 0.041,0.12695 1.47323,3.81688 4.55824,6.43354 7.45508,7.69141 2.89683,1.25787 5.71723,1.59155 8.86914,0.91601 0.50029,-0.10711 0.99139,-0.25339 1.46875,-0.4375 -1.86483,0.71979 -1.81748,0.72413 0.16992,-0.043 1.6349,-0.63104 3.52366,-2.44654 4.86133,-4.59766 1.52026,0.14933 3.06873,0.0581 4.57031,-0.52149 l 4.10742,-1.58593 c 0.68567,-0.26466 1.31983,-0.60698 1.91211,-1 0.82368,-0.0812 1.64864,-0.23184 2.46484,-0.54688 l 0.041,-0.0176 c 0.15126,-0.0581 0.30104,-0.11997 0.44922,-0.18554 l 4.00586,-1.7793 c 0.14885,-0.066 0.29603,-0.13565 0.4414,-0.20898 0.27586,-0.13949 0.45031,-0.35289 0.70899,-0.50586 0.82009,-0.0872 1.65211,-0.12086 2.42187,-0.41797 0.16391,-0.0633 0.32608,-0.13105 0.48633,-0.20313 l 1.98633,-0.89258 c 1.24939,-0.18965 2.4939,-0.46867 3.69337,-0.93164 1.59745,-0.61658 3.05031,-1.5441 4.39257,-2.61328 1.22806,0.54808 2.49175,0.94939 3.73243,0.93555 l -0.11914,0.004 1.07226,-0.0156 c 1.13395,-0.0173 2.25621,-0.23208 3.3164,-0.63476 0.003,-4.4e-4 0.005,-10e-4 0.008,-0.002 h 0.002 0.002 0.002 v -0.002 h 0.002 l 0.01,-0.002 c 0.0413,-0.006 0.0542,0.003 0.14258,-0.0312 3.64441,-1.40668 4.14511,-2.916 4.74805,-3.79688 0.0369,-0.0539 0.0358,-0.075 0.0703,-0.12695 2.51508,1.97037 5.81734,2.80715 9.30664,1.62695 l 0.44336,-0.1582 c -0.1296,0.05 -0.25955,0.0981 -0.38867,0.14258 l 4.05078,-1.3125 c 0.17155,-0.0552 0.34153,-0.1151 0.50976,-0.17969 3.41845,-1.31946 6.00499,-5.44102 6.32032,-9.37891 0.19256,-0.16054 0.36662,-0.34026 0.55273,-0.50976 1.35676,0.0664 2.71187,-0.0798 3.97266,-0.56641 0.16656,-0.0638 0.33133,-0.13222 0.49414,-0.20508 l 4,-1.80273 -0.15625,0.0645 c 0.77079,-0.34595 1.44965,-0.81646 2.08203,-1.33984 0.30625,0.0175 0.58385,0.0568 0.91406,0.041 1.64602,1.51285 4.6472,2.70515 7.08594,2.66797 2.40749,-0.0172 4.75289,-0.44112 6.99023,-1.30469 3.20827,-1.23832 6.46626,-3.49311 8.6836,-7.04687 0.59054,-0.94647 1.06214,-1.97939 1.44726,-3.05859 1.25938,-0.53655 2.46579,-1.1715 3.59766,-1.9668 1.16999,0.49252 2.36842,0.84513 3.54101,0.83203 l -0.11718,0.004 1.07421,-0.0156 c 1.14022,-0.0171 2.26862,-0.23393 3.33399,-0.64062 l 0.008,-0.002 c 0.0406,-0.006 0.056,0.003 0.14063,-0.0293 3.64436,-1.40665 4.1451,-2.916 4.74804,-3.79688 0.60295,-0.88088 0.88763,-1.5019 1.14063,-2.08984 0.506,-1.17589 0.79221,-2.19136 1.01952,-3.33985 0.0207,-0.10464 0.0168,-0.24501 0.0371,-0.35156 3.73219,1.24426 7.8316,1.29241 11.3672,-0.0723 2.2225,-0.85785 4.28671,-2.24618 6.06836,-4 2.32007,0.155 4.64864,-0.11254 6.79101,-0.93946 2.36385,-0.9124 4.30971,-2.23337 5.99414,-3.92773 0.77959,0.002 1.57705,0.0802 2.29688,-0.13086 0.10337,-0.0295 0.20625,-0.0608 0.30859,-0.0937 l 4.16405,-1.37305 c 0.15502,-0.0515 0.30871,-0.10682 0.46095,-0.16601 l 0.041,-0.0156 c 0.84807,-0.32733 1.46182,-0.84639 2.15625,-1.30273 0.0828,0.005 0.19808,0.0488 0.2793,0.0527 0.61273,0.0294 1.17602,0.0251 1.79297,-0.0254 0.61696,-0.0505 0.7201,0.21007 3,-0.66992 1.24949,-0.48228 2.40245,-1.31777 3.42578,-2.2793 0.89774,-0.0621 1.79387,-0.20558 2.66797,-0.54297 l 0.041,-0.0156 c 1.68439,-0.65014 1.70638,-0.74102 2.60547,-1.1543 0.6466,-0.29722 1.25823,-0.57946 1.55078,-0.71484 -0.16555,0.0705 -0.30901,0.12635 -0.42188,0.16992 l 0.53516,-0.22656 c 0.34176,-0.14875 0.7457,-0.33473 1.1875,-0.58594 0.75595,-0.0911 1.5132,-0.2482 2.26172,-0.53711 l 0.041,-0.0156 c 0.07,-0.0285 0.13967,-0.0578 0.20899,-0.0879 1.69868,1.37706 4.38806,2.45865 6.67187,2.42383 2.40485,-0.0172 4.75099,-0.44113 6.98828,-1.30469 3.20827,-1.23832 6.46581,-3.4935 8.6836,-7.04687 0.058,-0.093 0.0904,-0.20431 0.14648,-0.29883 v -0.002 -0.002 -0.002 -0.002 -0.002 -0.002 l 0.002,-0.002 v -0.002 l 0.002,-0.002 c 0.003,-0.003 0.006,-0.007 0.01,-0.0117 0.029,-0.0491 0.0477,-0.10478 0.0762,-0.15429 0.88777,-0.0465 1.76502,-0.21405 2.60742,-0.49805 0.0126,-0.004 0.0226,-0.007 0.0293,-0.008 0.007,-0.001 0.013,-0.003 0.0195,-0.004 0.0442,-0.007 0.0569,0.003 0.14452,-0.0312 3.64441,-1.40667 4.14518,-2.91256 4.74805,-3.79297 0.60286,-0.8804 0.88751,-1.50402 1.14062,-2.09179 0.39007,-0.90581 0.58279,-1.72254 0.78517,-2.57227 2.73415,0.9646 5.77553,1.07171 8.59764,-0.0176 1.45732,-0.56249 2.72923,-1.40958 3.83009,-2.42187 1.49308,0.0104 2.99887,-0.2159 4.44335,-0.77344 1.45633,-0.56211 2.72776,-1.40662 3.82813,-2.41797 1.49375,0.0102 3.00013,-0.21757 4.44531,-0.77539 2.18131,-0.84194 3.96649,-2.29517 5.3125,-4.06445 2.57591,0.85995 5.46988,0.98273 7.22656,0.30469 0.0957,-0.0369 0.1868,-0.0719 0.27344,-0.10547 0.28738,1.3371 0.79597,2.61661 1.54298,3.75976 -0.10415,0.0515 -0.22045,0.14905 -0.32227,0.19336 -0.0556,0.0242 -0.11091,0.049 -0.16602,0.0742 -3.47465,1.58927 -5.63723,5.56325 -6.01954,7.94531 -0.63465,3.95396 -0.12221,5.27571 1.9375,8.12305 0.20005,0.27735 0.41454,0.544 0.64259,0.79883 l 3.96679,4.41992 0.0371,0.041 0.0293,0.0312 c 1.92557,2.13982 4.73599,3.30555 6.62891,3.60937 2.09975,0.337 2.4175,0.13201 3.12891,0.0605 0.71141,-0.0715 1.38317,-0.18061 2.11523,-0.33399 0.032,-0.007 0.0772,-0.0263 0.10938,-0.0332 1.5951,2.36705 4.14299,4.03393 7.19336,4.52344 0.0416,0.007 0.0833,0.0146 0.125,0.0215 l 0.084,0.0117 c 0.12663,0.0181 0.25361,0.0338 0.38086,0.0469 l 8.11523,0.86914 c 0.12411,0.0141 0.24849,0.0258 0.37305,0.0351 4.64595,0.31835 10.35555,-3.17371 11.27734,-8.88672 l 0.01,-0.0625 c 0.0129,-0.0877 0.0247,-0.17562 0.0352,-0.26367 1.44746,1.50484 3.09008,2.65706 5.85937,3.10156 l 0.0156,0.002 28.55468,4.53906 c 1.24941,0.20054 2.31864,0.13525 3.35157,-0.0215 0.0135,4.98444 3.41019,9.67114 8.85351,10.54492 0.15183,0.0244 0.30422,0.0453 0.45703,0.0625 l 29.66992,3.33593 c 0.17017,0.0188 0.3408,0.0332 0.51172,0.043 2.09705,0.12476 4.16292,-0.46055 6,-1.48828 l 3.17969,2.82617 c 1.96398,1.76288 6.01016,3.33686 9.24609,2.83594 2.53564,-0.39234 3.87318,-1.30923 4.03125,-1.39062 0.0294,-0.0142 0.0587,-0.0285 0.0879,-0.043 3.38951,-1.78797 6.4293,-4.0342 9.16015,-6.55664 2.43806,1.02452 5.15498,2.15688 6.67383,2.83789 0.10274,0.0461 0.20627,0.0903 0.31055,0.13281 1.29835,0.52892 2.50737,1.27858 5.97266,0.74219 h 0.002 c 3.0474,-0.47189 7.05535,-3.7999 8.16211,-6.38477 0.0185,-0.0428 0.0368,-0.0858 0.0547,-0.1289 0.70514,-1.71417 2.40472,-5.57781 3.33399,-7.93164 0.0125,-0.0318 0.0249,-0.0637 0.0371,-0.0957 0.22667,-0.59213 1.24018,-2.34458 0.70117,-5.82617 -0.67515,-4.3616 -4.49884,-7.42294 -6.73046,-8.33203 -0.0325,-0.0138 -0.0651,-0.0275 -0.0977,-0.041 -1.71465,-0.67694 -3.3296,-1.12795 -4.87108,-1.50781 0.21856,-2.09947 0.29569,-4.21428 0.16602,-6.33398 -0.0181,-0.30014 -0.05,-0.59929 -0.0957,-0.89649 0.21977,1.41976 0.24266,1.28643 -0.0293,-0.4707 -0.64608,-4.17376 -3.25988,-7.53522 -5.98047,-9.45899 5.03072,-4.32231 8.92479,-10.1186 10.19922,-17.31054 1.24598,-7.03142 -0.0404,-14.69306 -3.55665,-22.56641 -0.0274,-0.0608 -0.0554,-0.12138 -0.084,-0.18164 -1.34742,-2.85847 -2.07795,-5.16504 -2.55859,-6.83789 0.35955,0.0264 0.64131,10e-4 1.03125,0.0703 h 0.0156 l 0.5586,0.0996 h 0.006 c 3.46863,0.61193 4.9909,0.102 7.52931,-1.23633 2.54281,-1.34065 5.45677,-4.63658 6.12305,-8.39648 v -0.002 c 0.0336,-0.18966 0.30522,-1.34085 0.16601,-3.08399 l -0.082,-0.8125 c 0.0287,0.19444 0.0517,0.38188 0.0703,0.56446 l -0.81055,-14.27344 c -0.009,-0.15001 -0.0213,-0.29979 -0.0371,-0.44922 -0.38524,-3.72986 -3.67479,-8.21481 -6.5547,-9.80274 -2.87991,-1.58792 -5.00298,-1.86923 -7.17382,-2.2539 -9.63702,-1.7077 -19.81447,-1.05935 -28.90429,2.6914 -5.97027,2.46352 -11.59325,6.73481 -15.33594,12.50391 -1.18191,-3.24861 -2.67761,-6.48111 -4.58008,-9.63086 -7.08622,-11.73199 -20.11927,-21.7845 -38.58984,-24.29101 -10.23433,-1.38883 -21.1581,-0.45129 -31.25782,3.63476 -0.36662,0.14833 -0.70791,0.38172 -1.07226,0.53906 -0.41439,-2.86104 -1.82429,-5.43701 -3.19531,-7.0039 l -6.46289,-7.4668 c 0.54605,-0.57753 0.74049,-0.70786 1.29492,-1.31641 1.67947,-1.84339 3.33511,-3.757 4.80273,-5.79101 1.46763,-2.03401 3.64454,-2.87539 3.64453,-9.33594 3e-5,-4.39097 -3.1237,-8.15308 -5.01367,-9.62305 l -12.38867,-9.83398 c -1.97471,-1.61569 -4.83781,-3.45312 -8.86719,-3.45312 -4.48519,-1e-5 -7.78288,2.68523 -9.10742,4.00976 -0.0111,0.011 -0.0222,0.0221 -0.0332,0.0332 l -2.53321,2.5586 -2.27734,-2.65625 -0.002,-0.002 c -2.27827,-2.72654 -6.03211,-5.19139 -10.71875,-5.1914 -2.53344,1e-5 -4.83715,0.78577 -6.47657,1.60547 -0.0372,0.0193 -0.0743,0.0388 -0.11132,0.0586 l -12.00196,6.19922 0.66211,-7.90039 c -0.011,0.0979 -0.0218,0.19633 -0.0351,0.29492 l 0.043,-0.38672 0.004,-0.0449 c 0.19052,-1.8729 -0.0452,-3.60892 -0.58398,-5.18164 2.05029,-2.86431 3.53314,-6.17878 4.03515,-9.87695 1.65792,-12.21349 -7.03945,-23.71232 -19.23047,-25.36719 -4.57977,-0.62169 -9.12541,0.19052 -13.02148,2.11328 -6.49387,3.20483 -11.32129,9.56829 -12.35742,17.20117 -0.0812,0.59809 -0.0248,1.18001 -0.0566,1.77344 -0.77795,-6.2856 -1.19657,-9.94939 -1.58789,-12.23438 -0.43915,-2.56422 -1.72301,-5.44892 -4.3418,-7.62304 -2.61879,-2.17412 -6.3993,-3.09161 -9.46484,-2.76172 l -22.52539,2.42578 c -0.202,0.0217 -0.40327,0.0497 -0.60352,0.084 l -0.23242,0.041 c -7.1842,1.23038 -11.32849,6.98421 -10.22266,14.13672 l 2.60742,18.47461 c -1.04745,-1.17197 -2.08165,-2.443 -3.10937,-3.57422 -7.50641,-8.26231 -13.77783,-14.99071 -19.64844,-19.14453 -3.52596,-2.49488 -4.33403,-2.01241 -6.0664,-2.30469 -1.73238,-0.29227 -3.53797,-0.50259 -6.11915,-0.0606 l -0.23242,0.0391 c -0.14777,0.0252 -0.29495,0.0539 -0.4414,0.0859 l -22.45508,4.92188 c -0.0124,0.003 -0.0247,0.005 -0.0371,0.008 -4.89532,1.09251 -8.15289,5.35016 -9.21094,8.28711 -1.05805,2.93695 -1.15762,4.92094 -0.69922,7.59766 l 0.041,0.23242 c 0.0302,0.17933 0.0653,0.35779 0.10547,0.53516 l 10.80664,47.08398 -1.47266,-4.29883 c -1.32688,-3.8716 -4.82335,-6.9172 -8.83984,-7.70312 -4.01532,-0.7857 -8.39744,0.71862 -11.08594,3.80273 l -17.32422,19.86914 -7.82422,-22.83008 24.72657,-28.36132 0.002,-0.002 c 3.58984,-4.11789 4.78053,-10.19133 3.00976,-15.35937 l -2.83593,-8.27344 -0.002,-0.002 c -1.77045,-5.16858 -6.43357,-9.23794 -11.79492,-10.28907 l -0.002,0.002 -8.58594,-1.68164 c -5.36148,-1.05038 -11.21614,0.95639 -14.80664,5.07422 l -7.10156,8.14648 -3.50586,-10.22461 c -1.77096,-5.16746 -6.43449,-9.23413 -11.79492,-10.28516 h -0.002 l -23.85156,-4.67187 c -4.01491,-0.78656 -8.40064,0.71557 -11.08984,3.79883 l -0.002,0.004 c -2.68543,3.08324 -3.57625,7.62971 -2.25195,11.49805 v 0.002 l 8.54687,24.93946 -23.68164,-4.63868 -12.19727,-35.59765 -0.002,-0.002 c -1.77188,-5.16729 -6.43809,-9.23315 -11.79883,-10.28321 l -8.58399,-1.68359 -0.004,0.002 c -0.67017,-0.13119 -1.34714,-0.21627 -2.02735,-0.2539 -0.51015,-0.0282 -1.02074,-0.0305 -1.53125,-0.008 z"
       style="font-size:26.6667px;font-family:'FOT-Yuruka Std';-inkscape-font-specification:'FOT-Yuruka Std, Normal';white-space:pre;display:inline;fill:url(#linearGradient14);stroke-width:0;stroke-miterlimit:0"
       id="path1-3"
       sodipodi:nodetypes="csccccccccccsccccccccccccccccccsccccccccccccccccccscccccccccssccccccccsccsccccccccccsccscccccccccccccscccccccccccccccssccccccccssscscscccccccssscccsccccccccsscccccccccsccccccsscscscscsccscscccccssccccccccsccccccscccccccccssccccscscccccscscccccccscccccccssscssscccsssccssccccsccccccccsssscssccccccssscccccscccccsccccccccccccccccccccccccccccscc" />
    <path
       d="m 187.50928,115.46755 c -1.53151,0.068 -3.05523,0.36142 -4.50781,0.85938 -2.58236,0.88525 -4.94139,2.41751 -6.73633,4.47656 l -5.75195,6.5918 -0.002,0.004 c -3.58913,4.11839 -4.77734,10.18975 -3.00586,15.35743 l 3.5039,10.2246 -10.60156,-2.07812 h -0.004 c -5.36165,-1.05056 -11.21604,0.95413 -14.80665,5.07227 l -0.002,0.002 -15.9707,18.32031 c -2.68834,3.08432 -3.58039,7.63343 -2.25391,11.50391 1.32649,3.87048 4.8189,6.9162 8.83399,7.70312 h 0.002 l 25.87109,5.06836 -15.85937,18.18945 -36.92383,-7.23242 -0.004,-0.002 c -5.36164,-1.05056 -11.216033,0.95414 -14.806636,5.07227 v 0.002 l -5.75,6.59765 c -3.589838,4.1179 -4.780528,10.18938 -3.009766,15.35743 l 0.002,0.002 2.835938,8.27734 c 1.770964,5.16746 6.434483,9.23219 11.794924,10.28321 l 0.002,0.002 10.60743,2.07617 -7.10157,8.14649 c -3.58984,4.11789 -4.780528,10.19132 -3.00976,15.35937 l 7.8789,22.99414 c 1.32689,3.87159 4.82337,6.9172 8.83985,7.70313 4.01531,0.7857 8.39743,-0.71865 11.08593,-3.80274 l 0.004,-0.002 17.32031,-19.86719 7.82227,22.82813 -24.72852,28.36523 h -0.002 c -3.58912,4.11839 -4.77734,10.19171 -3.00586,15.35938 l 2.83594,8.27539 v 0.004 c 1.77208,5.16789 6.43926,9.23177 11.80078,10.28125 l -0.004,0.002 8.58789,1.68164 h 0.002 c 5.36138,1.04953 11.21481,-0.95612 14.80468,-5.07422 l 7.09961,-8.14649 3.50586,10.22657 c 1.77195,5.16749 6.43782,9.23334 11.79883,10.2832 l 23.84766,4.67187 c 4.01656,0.78831 8.40377,-0.71367 11.09375,-3.79882 2.68963,-3.08476 3.5793,-7.63445 2.25195,-11.50586 v -0.002 l -8.54492,-24.93554 23.67969,4.63867 12.20117,35.59961 c 1.28299,3.74362 4.10935,6.86658 7.59375,8.72656 -0.148,0.0532 -0.35489,0.10356 -0.48633,0.1543 l -0.0801,0.0312 c -0.49656,0.19095 -0.97668,0.42219 -1.43554,0.6914 -2.51201,1.47805 -4.40637,3.3606 -5.875,6.02149 -1.46864,2.66089 -2.60253,6.74538 -0.92188,11.09961 0.11378,0.29477 0.19344,0.33742 0.30859,0.60547 -0.26838,1.8746 -0.13266,3.80352 0.42188,5.24023 l 0.0156,0.041 c 0.0668,0.17126 0.13846,0.3406 0.21485,0.50781 l 0.47851,1.06055 -0.0352,-0.084 c 0.61795,1.36019 1.70156,2.75273 3.30273,3.95508 0.0162,0.0426 0.0246,0.0844 0.041,0.12695 1.47323,3.81688 4.55824,6.43354 7.45508,7.69141 2.89683,1.25787 5.71723,1.59155 8.86914,0.91601 0.50029,-0.10711 0.99139,-0.25339 1.46875,-0.4375 -1.86483,0.71979 -1.81748,0.72413 0.16992,-0.043 1.6349,-0.63104 3.52366,-2.44654 4.86133,-4.59766 1.52026,0.14933 3.06873,0.0581 4.57031,-0.52149 l 4.10742,-1.58593 c 0.68567,-0.26466 1.31983,-0.60698 1.91211,-1 0.82368,-0.0812 1.64864,-0.23184 2.46484,-0.54688 l 0.041,-0.0176 c 0.15125,-0.0581 0.30104,-0.11997 0.44922,-0.18554 l 4.00586,-1.7793 c 0.14885,-0.066 0.29603,-0.13565 0.4414,-0.20898 0.27586,-0.13949 0.45031,-0.35289 0.70899,-0.50586 0.82009,-0.0872 1.65211,-0.12086 2.42187,-0.41797 0.16391,-0.0633 0.32608,-0.13105 0.48633,-0.20313 l 1.98633,-0.89258 c 1.24938,-0.18965 2.4939,-0.46867 3.69336,-0.93164 1.59746,-0.61658 3.05032,-1.5441 4.39258,-2.61328 1.22806,0.54808 2.49174,0.94939 3.73242,0.93555 l -0.11914,0.004 1.07226,-0.0156 c 1.13395,-0.0173 2.25622,-0.23208 3.31641,-0.63476 0.003,-4.4e-4 0.005,-10e-4 0.008,-0.002 h 0.002 0.002 0.002 v -0.002 h 0.002 l 0.01,-0.002 c 0.0413,-0.006 0.0542,0.003 0.14258,-0.0312 3.64441,-1.40668 4.14511,-2.916 4.74805,-3.79688 0.0369,-0.0539 0.0358,-0.075 0.0703,-0.12695 2.51508,1.97037 5.81734,2.80715 9.30664,1.62695 l 0.44336,-0.1582 c -0.1296,0.05 -0.25955,0.0981 -0.38867,0.14258 l 4.05078,-1.3125 c 0.17154,-0.0552 0.34153,-0.1151 0.50976,-0.17969 3.41845,-1.31946 6.00499,-5.44102 6.32032,-9.37891 0.19256,-0.16054 0.36662,-0.34026 0.55273,-0.50976 1.35676,0.0664 2.71187,-0.0798 3.97266,-0.56641 0.16655,-0.0638 0.33133,-0.13222 0.49414,-0.20508 l 4,-1.80273 -0.15625,0.0645 c 0.77079,-0.34595 1.44965,-0.81646 2.08203,-1.33984 0.30625,0.0175 0.58385,0.0568 0.91406,0.041 1.64602,1.51285 4.6472,2.70515 7.08594,2.66797 2.40749,-0.0172 4.75289,-0.44112 6.99023,-1.30469 3.20827,-1.23832 6.46626,-3.49311 8.6836,-7.04687 0.59054,-0.94647 1.06214,-1.97939 1.44726,-3.05859 1.25938,-0.53655 2.46579,-1.1715 3.59766,-1.9668 1.16999,0.49252 2.36842,0.84513 3.54101,0.83203 l -0.11718,0.004 1.07421,-0.0156 c 1.14022,-0.0171 2.26862,-0.23393 3.33399,-0.64062 l 0.008,-0.002 c 0.0406,-0.006 0.056,0.003 0.14063,-0.0293 3.64436,-1.40665 4.1451,-2.916 4.74804,-3.79688 0.60295,-0.88088 0.88763,-1.5019 1.14063,-2.08984 0.506,-1.17589 0.79222,-2.19136 1.01953,-3.33985 0.0207,-0.10464 0.0168,-0.24501 0.0371,-0.35156 3.73218,1.24426 7.83159,1.29241 11.36719,-0.0723 2.2225,-0.85785 4.28672,-2.24618 6.06836,-4 2.32007,0.155 4.64864,-0.11254 6.79101,-0.93946 2.36385,-0.9124 4.30971,-2.23337 5.99414,-3.92773 0.77959,0.002 1.57705,0.0802 2.29688,-0.13086 0.10337,-0.0295 0.20625,-0.0608 0.30859,-0.0937 l 4.16406,-1.37305 c 0.15501,-0.0515 0.3087,-0.10682 0.46094,-0.16601 l 0.041,-0.0156 c 0.84806,-0.32733 1.46182,-0.84639 2.15625,-1.30273 0.0828,0.005 0.19808,0.0488 0.27929,0.0527 0.61274,0.0294 1.17602,0.0251 1.79297,-0.0254 0.61696,-0.0505 0.72011,0.21007 3,-0.66992 1.24949,-0.48228 2.40245,-1.31777 3.42578,-2.2793 0.89774,-0.0621 1.79387,-0.20558 2.66797,-0.54297 l 0.041,-0.0156 c 1.68439,-0.65014 1.70638,-0.74102 2.60547,-1.1543 0.6466,-0.29722 1.25823,-0.57946 1.55078,-0.71484 -0.16555,0.0705 -0.309,0.12635 -0.42188,0.16992 l 0.53516,-0.22656 c 0.34176,-0.14875 0.7457,-0.33473 1.1875,-0.58594 0.75595,-0.0911 1.5132,-0.2482 2.26172,-0.53711 l 0.041,-0.0156 c 0.07,-0.0285 0.13967,-0.0578 0.20899,-0.0879 1.69868,1.37706 4.38806,2.45865 6.67187,2.42383 2.40485,-0.0172 4.75099,-0.44113 6.98828,-1.30469 3.20827,-1.23832 6.46581,-3.4935 8.6836,-7.04687 0.058,-0.093 0.0904,-0.20431 0.14648,-0.29883 v -0.002 -0.002 -0.002 -0.002 -0.002 -0.002 l 0.002,-0.002 v -0.002 l 0.002,-0.002 c 0.003,-0.003 0.006,-0.007 0.01,-0.0117 0.029,-0.0491 0.0477,-0.10478 0.0762,-0.15429 0.88776,-0.0465 1.76502,-0.21405 2.60742,-0.49805 0.0126,-0.004 0.0226,-0.007 0.0293,-0.008 0.007,-0.001 0.013,-0.003 0.0195,-0.004 0.0442,-0.007 0.0569,0.003 0.14453,-0.0312 3.64441,-1.40667 4.14518,-2.91256 4.74804,-3.79297 0.60287,-0.8804 0.88751,-1.50402 1.14063,-2.09179 0.39007,-0.90581 0.58279,-1.72254 0.78516,-2.57227 2.73416,0.9646 5.77553,1.07171 8.59765,-0.0176 1.45732,-0.56249 2.72923,-1.40958 3.83008,-2.42187 1.49309,0.0104 2.99887,-0.2159 4.44336,-0.77344 1.45632,-0.56211 2.72776,-1.40662 3.82812,-2.41797 1.49376,0.0102 3.00013,-0.21757 4.44532,-0.77539 2.1813,-0.84194 3.96649,-2.29517 5.3125,-4.06445 2.57591,0.85995 5.46988,0.98273 7.22656,0.30469 0.0957,-0.0369 0.1868,-0.0719 0.27344,-0.10547 0.28738,1.3371 0.79597,2.61661 1.54297,3.75976 -0.10415,0.0515 -0.22044,0.14905 -0.32227,0.19336 -0.0556,0.0242 -0.11091,0.049 -0.16602,0.0742 -3.47464,1.58927 -5.63722,5.56325 -6.01953,7.94531 -0.63466,3.95396 -0.12221,5.27571 1.9375,8.12305 0.20005,0.27735 0.41454,0.544 0.64258,0.79883 l 3.9668,4.41992 0.0371,0.041 0.0293,0.0312 c 1.92558,2.13982 4.73599,3.30555 6.62891,3.60937 2.09975,0.337 2.4175,0.13201 3.12891,0.0605 0.71141,-0.0715 1.38318,-0.18061 2.11523,-0.33399 0.032,-0.007 0.0772,-0.0263 0.10938,-0.0332 1.5951,2.36705 4.143,4.03393 7.19336,4.52344 0.0416,0.007 0.0833,0.0146 0.125,0.0215 l 0.084,0.0117 c 0.12663,0.0181 0.25361,0.0338 0.38086,0.0469 l 8.11523,0.86914 c 0.12411,0.0141 0.24848,0.0258 0.37305,0.0351 4.64595,0.31835 10.35555,-3.17371 11.27734,-8.88672 l 0.01,-0.0625 c 0.0129,-0.0877 0.0247,-0.17562 0.0352,-0.26367 1.44746,1.50484 3.09008,2.65706 5.85937,3.10156 l 0.0156,0.002 28.55468,4.53906 c 1.24941,0.20054 2.31864,0.13525 3.35157,-0.0215 0.0135,4.98444 3.41019,9.67114 8.85351,10.54492 0.15183,0.0244 0.30421,0.0453 0.45703,0.0625 l 29.66992,3.33593 c 0.17016,0.0188 0.3408,0.0332 0.51172,0.043 2.09705,0.12476 4.16292,-0.46055 6,-1.48828 l 3.17969,2.82617 c 1.96398,1.76288 6.01016,3.33686 9.24609,2.83594 2.53564,-0.39234 3.87318,-1.30923 4.03125,-1.39062 0.0294,-0.0142 0.0587,-0.0285 0.0879,-0.043 3.38951,-1.78797 6.4293,-4.0342 9.16015,-6.55664 2.43806,1.02452 5.15497,2.15688 6.67383,2.83789 0.10274,0.0461 0.20627,0.0903 0.31055,0.13281 1.29834,0.52892 2.50737,1.27858 5.97265,0.74219 h 0.002 c 3.0474,-0.47189 7.05535,-3.7999 8.16211,-6.38477 0.0185,-0.0428 0.0368,-0.0858 0.0547,-0.1289 0.70513,-1.71417 2.40472,-5.57781 3.33399,-7.93164 0.0125,-0.0318 0.0249,-0.0637 0.0371,-0.0957 0.22667,-0.59213 1.24018,-2.34458 0.70117,-5.82617 -0.67515,-4.3616 -4.49885,-7.42294 -6.73047,-8.33203 -0.0325,-0.0138 -0.0651,-0.0275 -0.0977,-0.041 -1.71466,-0.67694 -3.3296,-1.12795 -4.87109,-1.50781 0.21856,-2.09947 0.29569,-4.21428 0.16602,-6.33398 -0.0181,-0.30014 -0.05,-0.59929 -0.0957,-0.89649 0.21977,1.41976 0.24266,1.28643 -0.0293,-0.4707 -0.64608,-4.17376 -3.25988,-7.53522 -5.98047,-9.45899 5.03072,-4.32231 8.92479,-10.1186 10.19922,-17.31054 1.24598,-7.03142 -0.0404,-14.69306 -3.55665,-22.56641 -0.0274,-0.0608 -0.0554,-0.12138 -0.084,-0.18164 -1.34742,-2.85847 -2.07795,-5.16504 -2.55859,-6.83789 0.35955,0.0264 0.64131,10e-4 1.03125,0.0703 h 0.0156 l 0.5586,0.0996 h 0.006 c 3.46863,0.61193 4.9909,0.102 7.5293,-1.23633 2.54281,-1.34065 5.45677,-4.63658 6.12305,-8.39648 v -0.002 c 0.0336,-0.18966 0.30522,-1.34085 0.16601,-3.08399 l -0.082,-0.8125 c 0.0287,0.19444 0.0517,0.38188 0.0703,0.56446 l -0.81055,-14.27344 c -0.009,-0.15001 -0.0213,-0.29979 -0.0371,-0.44922 -0.38524,-3.72986 -3.67478,-8.21481 -6.55469,-9.80274 -2.87991,-1.58792 -5.00299,-1.86923 -7.17383,-2.2539 -9.63702,-1.7077 -19.81446,-1.05935 -28.90429,2.6914 -5.97027,2.46352 -11.59325,6.73481 -15.33594,12.50391 -1.1819,-3.24861 -2.67761,-6.48111 -4.58008,-9.63086 -7.08622,-11.73199 -20.11927,-21.7845 -38.58984,-24.29101 -10.23433,-1.38883 -21.1581,-0.45129 -31.25782,3.63476 -0.36662,0.14833 -0.70791,0.38172 -1.07226,0.53906 -0.41439,-2.86104 -1.82429,-5.43701 -3.19531,-7.0039 l -6.46289,-7.4668 c 0.54605,-0.57753 0.74049,-0.70786 1.29492,-1.31641 1.67947,-1.84339 3.33511,-3.757 4.80273,-5.79101 1.46763,-2.03401 3.64454,-2.87539 3.64453,-9.33594 3e-5,-4.39097 -3.1237,-8.15308 -5.01367,-9.62305 l -12.38867,-9.83398 c -1.97471,-1.61569 -4.83781,-3.45312 -8.86719,-3.45312 -4.48519,-1e-5 -7.78288,2.68523 -9.10742,4.00976 -0.0111,0.011 -0.0222,0.0221 -0.0332,0.0332 l -2.53321,2.5586 -2.27734,-2.65625 -0.002,-0.002 c -2.27827,-2.72654 -6.03211,-5.19139 -10.71875,-5.1914 -2.53344,1e-5 -4.83715,0.78577 -6.47657,1.60547 -0.0372,0.0193 -0.0743,0.0388 -0.11132,0.0586 l -12.00196,6.19922 0.66211,-7.90039 c -0.011,0.0979 -0.0218,0.19633 -0.0351,0.29492 l 0.043,-0.38672 0.004,-0.0449 c 0.19052,-1.8729 -0.0452,-3.60892 -0.58398,-5.18164 2.05029,-2.86431 3.53314,-6.17878 4.03515,-9.87695 1.65792,-12.21349 -7.03945,-23.71232 -19.23047,-25.36719 -4.57977,-0.62169 -9.12541,0.19052 -13.02148,2.11328 -6.49387,3.20483 -11.32129,9.56829 -12.35742,17.20117 -0.0812,0.59809 -0.0248,1.18001 -0.0566,1.77344 -0.77795,-6.2856 -1.19657,-9.94939 -1.58789,-12.23438 -0.43915,-2.56422 -1.72301,-5.44892 -4.3418,-7.62304 -2.61879,-2.17412 -6.3993,-3.09161 -9.46484,-2.76172 l -22.52539,2.42578 c -0.202,0.0217 -0.40327,0.0497 -0.60352,0.084 l -0.23242,0.041 c -7.1842,1.23038 -11.32849,6.98421 -10.22266,14.13672 l 2.60742,18.47461 c -1.04745,-1.17197 -2.08165,-2.443 -3.10937,-3.57422 -7.50641,-8.26231 -13.77783,-14.99071 -19.64844,-19.14453 -3.52596,-2.49488 -4.33403,-2.01241 -6.0664,-2.30469 -1.73238,-0.29227 -3.53797,-0.50259 -6.11915,-0.0606 l -0.23242,0.0391 c -0.14778,0.0252 -0.29495,0.0539 -0.4414,0.0859 l -22.45508,4.92188 c -0.0124,0.003 -0.0247,0.005 -0.0371,0.008 -4.89532,1.09251 -8.15289,5.35016 -9.21094,8.28711 -1.05805,2.93695 -1.15762,4.92094 -0.69922,7.59766 l 0.041,0.23242 c 0.0302,0.17933 0.0653,0.35779 0.10547,0.53516 l 10.80664,47.08398 -1.47266,-4.29883 c -1.32688,-3.8716 -4.82335,-6.9172 -8.83984,-7.70312 -4.01532,-0.7857 -8.39744,0.71862 -11.08594,3.80273 l -17.32422,19.86914 -7.82422,-22.83008 24.72657,-28.36132 0.002,-0.002 c 3.58984,-4.11789 4.78053,-10.19133 3.00976,-15.35937 l -2.83593,-8.27344 -0.002,-0.002 c -1.77045,-5.16858 -6.43357,-9.23794 -11.79492,-10.28907 l -0.002,0.002 -8.58594,-1.68164 c -5.36148,-1.05038 -11.21614,0.95639 -14.80664,5.07422 l -7.10156,8.14648 -3.50586,-10.22461 c -1.77096,-5.16746 -6.43449,-9.23413 -11.79492,-10.28516 h -0.002 l -23.85156,-4.67187 c -4.01491,-0.78656 -8.40064,0.71557 -11.08984,3.79883 l -0.002,0.004 c -2.68543,3.08324 -3.57625,7.62971 -2.25195,11.49805 v 0.002 l 8.54688,24.93946 -23.68164,-4.63868 -12.19727,-35.59765 -0.002,-0.002 c -1.77188,-5.16729 -6.43809,-9.23315 -11.79883,-10.28321 l -8.58399,-1.68359 -0.004,0.002 c -0.67017,-0.13119 -1.34714,-0.21627 -2.02735,-0.2539 -0.51015,-0.0282 -1.02074,-0.0305 -1.53125,-0.008 z"
       style="font-size:26.6667px;font-family:'FOT-Yuruka Std';-inkscape-font-specification:'FOT-Yuruka Std, Normal';white-space:pre;display:inline;fill:#ffffff;stroke-width:0;stroke-miterlimit:0"
       id="path1"
       sodipodi:nodetypes="csccccccccccsccccccccccccccccccsccccccccccccccccccscccccccccssccccccccsccsccccccccccsccscccccccccccccscccccccccccccccssccccccccssscscscccccccssscccsccccccccsscccccccccsccccccsscscscscsccscscccccssccccccccsccccccscccccccccssccccscscccccscscccccccscccccccssscssscccsssccssccccsccccccccsssscssccccccssscccccscccccsccccccccccccccccccccccccccccscc" />
  </g>
  <g
     inkscape:groupmode="layer"
     id="g268"
     inkscape:label="Kawaii recolour 2"
     style="display:inline"
     transform="matrix(1.0896051,0,0,1.0896051,-32.762987,-82.792771)">
    <g
       id="g148"
       inkscape:label="ニクスオーエス"
       style="display:inline"
       transform="translate(-39.227313,46.14978)">
      <g
         id="g72"
         inkscape:label="ス"
         transform="rotate(-8.7992594,734.36839,352.5204)"
         style="fill:url(#linearGradient176)">
        <path
           style="font-size:42.6667px;font-family:'FOT-Yuruka Std';-inkscape-font-specification:'FOT-Yuruka Std, Normal';white-space:pre;fill:#36bbf2;fill-opacity:1;stroke-width:0;stroke-miterlimit:0"
           d="m 708.26792,371.75326 c -0.17067,0.21334 -0.256,0.42667 -0.256,0.59734 0,0.34133 0.29867,0.55466 0.64,0.768 2.13333,1.28 7.04,4.30933 9.34401,5.80267 0.21333,0.128 0.512,0.256 0.768,0.256 0.29866,0 0.55466,-0.128 0.768,-0.46934 1.10933,-1.83466 3.41333,-5.46133 4.43733,-7.21067 0.17067,-0.29866 0.29867,-0.55466 0.29867,-0.81066 0,-0.34134 -0.21333,-0.64001 -0.64,-0.89601 -5.248,-3.072 -10.45334,-3.712 -10.79467,-3.712 -0.38401,0 -0.76801,0.128 -1.06667,0.55467 z"
           id="path36"
           transform="translate(12.053027,-54.292764)" />
        <path
           style="font-size:42.6667px;font-family:'FOT-Yuruka Std';-inkscape-font-specification:'FOT-Yuruka Std, Normal';white-space:pre;fill:#36bbf2;fill-opacity:1;stroke-width:0;stroke-miterlimit:0"
           d="m 691.03057,378.7506 c 0.384,0.46933 0.768,0.64 1.152,0.64 0.384,0 0.72534,-0.128 1.10934,-0.256 11.39201,-3.92533 21.12001,-16.55468 22.10135,-27.13602 0,-0.17067 0.0427,-0.29867 0.0427,-0.46933 0,-2.85867 -2.64533,-4.56534 -4.56533,-4.73601 l -17.02402,-1.32266 h -0.0853 c -0.46933,0 -0.85333,0.34133 -0.896,0.81066 l -0.64,7.04001 v 0.0853 c 0,0.46934 0.34133,0.85334 0.81067,0.896 l 9.04534,0.768 c 0.64,0.0427 0.93866,0.29867 0.93866,0.81067 0,2.13334 -6.4,12.58668 -15.10401,16.89601 -0.59733,0.256 -0.85333,0.55467 -0.85333,0.896 0,0.21334 0.128,0.42667 0.29867,0.64 z"
           id="path38"
           transform="translate(12.053027,-54.292764)" />
      </g>
      <g
         id="g88"
         inkscape:label="エ"
         transform="rotate(9.1181609,662.71014,280.89079)"
         style="fill:#0f5dbc;fill-opacity:1">
        <path
           style="font-size:42.6667px;font-family:'FOT-Yuruka Std';-inkscape-font-specification:'FOT-Yuruka Std, Normal';white-space:pre;fill:#0f5dbc;fill-opacity:1;stroke-width:0;stroke-miterlimit:0"
           d="m 678.82789,376.10527 c 0.42667,-0.0427 0.81067,-0.384 0.81067,-0.81067 v -0.0853 l -0.42667,-6.61334 c -0.0427,-0.46934 -0.64,-0.85334 -1.06666,-0.85334 h -0.0853 l -10.49601,0.46934 v -12.62935 l 7.25334,0.128 h 0.0853 c 0.42666,0 0.81066,-0.384 0.81066,-0.81066 l 0.0853,-6.65601 c 0,-0.46933 -0.34134,-0.85333 -0.81067,-0.85333 l -24.02135,-0.46934 c -0.512,0 -0.896,0.34134 -0.896,0.85334 l -0.128,6.61334 c 0,0.46933 0.384,0.896 0.85333,0.896 l 7.25334,0.128 v 13.26934 l -9.81334,0.46933 c -0.46933,0 -0.59733,0.42667 -0.59733,0.896 l 0.46933,6.61334 c 0.0427,0.46934 0.42667,0.85334 0.896,0.85334 z"
           id="path77"
           transform="translate(12.053027,-54.292764)" />
      </g>
      <g
         id="g116"
         inkscape:label="ー"
         transform="rotate(9.1181609,640.00409,282.70135)">
        <path
           style="font-size:42.6667px;font-family:'FOT-Yuruka Std';-inkscape-font-specification:'FOT-Yuruka Std, Normal';white-space:pre;fill:#36bbf2;fill-opacity:1;stroke-width:0;stroke-miterlimit:0"
           d="m 634.71052,365.48126 c 0.46934,0 1.024,-0.384 1.024,-0.896 v -7.72268 c 0,-0.55466 -0.55466,-0.98133 -1.024,-0.98133 l -28.97069,-0.0427 c -0.46933,0 -1.024,0.42667 -1.024,0.93867 v 7.76534 c 0,0.55467 0.59734,0.98133 1.06667,0.98133 z"
           id="path115"
           transform="translate(12.053027,-54.292764)" />
      </g>
      <g
         id="g143"
         inkscape:label="オ"
         transform="rotate(9.1181609,666.6107,292.7244)">
        <path
           style="font-size:42.6667px;font-family:'FOT-Yuruka Std';-inkscape-font-specification:'FOT-Yuruka Std, Normal';white-space:pre;fill:#0f5dbc;fill-opacity:1;stroke-width:0;stroke-miterlimit:0"
           d="m 587.64916,378.66527 c 0.46933,-0.0427 0.85333,-0.384 0.85333,-0.85334 v -0.0853 l -1.06667,-19.92535 3.75467,0.17067 h 0.0853 c 0.46933,0 0.81066,-0.384 0.85333,-0.81067 l 0.34133,-7.04 v -0.0853 c 0,-0.46933 -0.384,-0.81066 -0.85333,-0.85333 l -4.608,-0.21333 -0.34134,-6.01601 c 0,-0.42667 -0.384,-0.81067 -0.81066,-0.81067 h -0.0853 l -8.192,0.42667 c -0.512,0 -0.85334,0.42667 -0.85334,0.896 l 0.256,5.03467 -13.09867,-0.64 h -0.0853 c -0.42666,0 -0.81066,0.384 -0.81066,0.81067 l -0.384,7.04 c 0,0.512 0.384,0.896 0.85333,0.93867 l 13.99468,0.68267 0.256,4.992 -5.80267,-2.944 c -0.17067,-0.0853 -0.34134,-0.128 -0.512,-0.128 -0.42667,0 -0.81067,0.21333 -1.024,0.59733 -1.66401,3.07201 -4.82134,8.32001 -9.68535,11.43468 -0.256,0.17067 -0.34133,0.42667 -0.34133,0.68267 0,0.29866 0.17067,0.64 0.34133,0.81066 l 4.69334,3.79734 c 0.29867,0.256 0.64,0.34133 0.98134,0.34133 0.896,0 7.72267,-2.21867 11.648,-9.17334 l 0.55467,10.53868 c 0,0.42666 0.384,0.81066 0.85334,0.81066 h 0.0853 z"
           id="path134"
           transform="translate(12.053027,-54.292764)" />
      </g>
      <g
         id="g144"
         inkscape:label="ス"
         transform="matrix(1.2146681,0.05083729,-0.05083729,1.2146681,-106.90858,-173.59918)">
        <path
           style="font-size:42.6667px;font-family:'FOT-Yuruka Std';-inkscape-font-specification:'FOT-Yuruka Std, Normal';white-space:pre;fill:#0f5dbc;fill-opacity:1;stroke-width:0;stroke-miterlimit:0"
           d="m 537.60112,371.75326 c -0.17066,0.21334 -0.256,0.42667 -0.256,0.59734 0,0.34133 0.29867,0.55466 0.64,0.768 2.13334,1.28 7.04001,4.30933 9.34401,5.80267 0.21334,0.128 0.512,0.256 0.768,0.256 0.29867,0 0.55467,-0.128 0.768,-0.46934 1.10934,-1.83466 3.41334,-5.46133 4.43734,-7.21067 0.17067,-0.29866 0.29867,-0.55466 0.29867,-0.81066 0,-0.34134 -0.21334,-0.64001 -0.64,-0.89601 -5.24801,-3.072 -10.45335,-3.712 -10.79468,-3.712 -0.384,0 -0.768,0.128 -1.06667,0.55467 z"
           transform="translate(12.053027,-54.292764)"
           id="path143" />
        <path
           style="font-size:42.6667px;font-family:'FOT-Yuruka Std';-inkscape-font-specification:'FOT-Yuruka Std, Normal';white-space:pre;fill:#0f5dbc;fill-opacity:1;stroke-width:0;stroke-miterlimit:0"
           d="m 520.36378,378.7506 c 0.384,0.46933 0.768,0.64 1.152,0.64 0.384,0 0.72533,-0.128 1.10933,-0.256 11.39201,-3.92533 21.12002,-16.55468 22.10135,-27.13602 0,-0.17067 0.0427,-0.29867 0.0427,-0.46933 0,-2.85867 -2.64534,-4.56534 -4.56534,-4.73601 l -17.02401,-1.32266 h -0.0853 c -0.46934,0 -0.85334,0.34133 -0.896,0.81066 l -0.64,7.04001 v 0.0853 c 0,0.46934 0.34133,0.85334 0.81066,0.896 l 9.04534,0.768 c 0.64,0.0427 0.93867,0.29867 0.93867,0.81067 0,2.13334 -6.4,12.58668 -15.10401,16.89601 -0.59733,0.256 -0.85333,0.55467 -0.85333,0.896 0,0.21334 0.128,0.42667 0.29866,0.64 z"
           transform="translate(12.053027,-54.292764)"
           id="path144" />
      </g>
      <g
         id="g145"
         inkscape:label="ク"
         transform="matrix(1.2127222,-0.08548631,0.08548631,1.2127222,-147.24915,-100.797)"
         style="fill:url(#linearGradient174)">
        <path
           style="font-size:42.6667px;font-family:'FOT-Yuruka Std';-inkscape-font-specification:'FOT-Yuruka Std, Normal';white-space:pre;fill:#36bbf2;fill-opacity:1;stroke-width:0;stroke-miterlimit:0"
           d="m 486.74242,378.53727 c 0.29867,0.29866 0.55467,0.42666 0.85334,0.42666 2.048,0 22.14401,-11.98934 24.49068,-25.72801 0.0427,-0.256 0.0853,-0.512 0.0853,-0.76801 0,-2.56 -2.26133,-4.096 -4.01067,-4.224 l -13.31201,-1.024 c -1.62133,-2.64533 -1.92,-3.11467 -2.47466,-3.11467 -0.29867,0 -0.55467,0.128 -0.76801,0.29867 -2.90133,2.09067 -7.46667,5.03467 -11.904,6.528 -0.384,0.128 -0.64,0.384 -0.64,0.768 0,0.17067 0.0853,0.42667 0.256,0.68267 l 3.66933,5.84534 c 0.29867,0.42667 0.64,0.55467 1.06667,0.55467 0.93867,0 4.26667,-1.024 9.64267,-3.37067 l 4.82134,0.384 c 0.512,0.0427 0.81067,0.256 0.81067,0.59733 0,1.10934 -8.36268,11.13601 -16.51202,16.25601 -0.46933,0.34134 -0.68266,0.64 -0.68266,0.93867 0,0.21333 0.0853,0.384 0.29866,0.59733 z"
           transform="translate(12.053027,-54.292764)"
           id="path145" />
      </g>
      <g
         id="g147"
         inkscape:label="ニ"
         transform="matrix(1.2146681,0.05083729,-0.05083729,1.2146681,-105.21116,-158.14233)">
        <path
           style="font-size:42.6667px;font-family:'FOT-Yuruka Std';-inkscape-font-specification:'FOT-Yuruka Std, Normal';white-space:pre;fill:#0f5dbc;fill-opacity:1;stroke-width:0;stroke-miterlimit:0"
           d="m 463.3184,357.16125 c 0.46934,0 0.896,-0.384 0.896,-0.85333 l 0.0853,-7.63734 v -0.0853 c 0,-0.46934 -0.384,-0.81067 -0.81067,-0.81067 l -21.07735,-0.46934 c -0.512,0 -0.896,0.34134 -0.896,0.85334 l -0.128,7.63734 c 0,0.46933 0.384,0.896 0.85333,0.896 z"
           transform="translate(12.053027,-54.292764)"
           id="path146" />
        <path
           style="font-size:42.6667px;font-family:'FOT-Yuruka Std';-inkscape-font-specification:'FOT-Yuruka Std, Normal';white-space:pre;fill:#0f5dbc;fill-opacity:1;stroke-width:0;stroke-miterlimit:0"
           d="m 468.05441,375.25193 c 0.42666,-0.0427 0.81066,-0.384 0.81066,-0.81067 v -0.0853 l -0.46933,-7.68 c -0.0427,-0.42667 -0.64,-0.81067 -1.06667,-0.81067 h -0.0853 l -28.45869,1.36533 c -0.46933,0.0427 -0.59733,0.42667 -0.59733,0.93867 l 0.512,7.63734 c 0.0427,0.46933 0.42667,0.85333 0.896,0.85333 z"
           transform="translate(12.053027,-54.292764)"
           id="path147" />
      </g>
    </g>
    <g
       id="g154"
       inkscape:label="NixOS"
       transform="translate(-39.227313,46.14978)">
      <path
         style="font-size:96px;font-family:'FOT-Yuruka Std';-inkscape-font-specification:'FOT-Yuruka Std, Normal';white-space:pre;display:inline;fill:#0f5dbc;fill-opacity:1;stroke-width:0;stroke-miterlimit:0"
         d="m 712.40478,200.22884 c 0.288,1.248 1.44,2.304 2.688,2.304 0.96,0.096 1.824,0.096 2.784,0.096 16.608,0 35.712,-9.408 35.712,-25.344 0,-4.8 -1.728,-10.176 -5.76,-16.128 -4.416,-6.24 -6.816,-10.752 -6.816,-14.016 0,-5.472 5.856,-7.776 12.096,-7.776 h 0.576 c 0.576,0 2.016,-0.576 2.016,-2.112 0,-0.192 0,-0.48 -0.096,-0.768 l -3.36,-14.208 c -0.576,-2.016 -2.496,-2.4 -6.24,-2.4 -16.128,0 -33.408,8.544 -33.408,23.712 0,4.704 1.728,10.08 5.664,16.032 5.184,8.064 6.912,10.944 6.912,14.112 0,6.048 -7.104,9.504 -13.632,9.504 h -0.384 c -0.576,0 -2.016,0.48 -2.016,1.92 0,0.192 0,0.48 0.096,0.672 z"
         id="path299"
         transform="rotate(10.048628,217.01955,51.244215)" />
      <path
         d="m 715.54863,154.93479 c 9.66258,1.75079 19.39909,1.8455 28.76381,0.89728 -2.15741,-3.5961 -3.29938,-6.4392 -3.29938,-8.69044 0,-5.472 5.85622,-7.77676 12.09622,-7.77676 l 0.5751,-7.5e-4 c 0.576,0 2.01615,-0.57473 2.01615,-2.11073 0,-0.192 -4.9e-4,-0.48038 -0.0965,-0.76838 l -3.35873,-14.20808 c -0.576,-2.016 -2.49689,-2.39904 -6.24089,-2.39904 -16.128,0 -33.40858,8.54256 -33.40858,23.71056 0,3.43568 0.92217,7.2311 2.95279,11.34634 z"
         style="font-size:96px;font-family:'FOT-Yuruka Std';-inkscape-font-specification:'FOT-Yuruka Std, Normal';white-space:pre;display:inline;fill:#3a79da;fill-opacity:1;stroke:none;stroke-width:0;stroke-miterlimit:0;stroke-opacity:1"
         id="path292"
         transform="rotate(10.048628,217.01955,51.244225)" />
      <path
         style="font-size:96px;font-family:'FOT-Yuruka Std';-inkscape-font-specification:'FOT-Yuruka Std, Normal';white-space:pre;display:inline;fill:#3a79da;fill-opacity:1;stroke-width:0;stroke-miterlimit:0"
         d="m 694.29924,160.47139 c 2.23955,-16.50339 -6.0788,-44.20183 -37.70205,-48.4932 -17.39279,-2.36025 -37.29559,3.39285 -46.22682,21.00101 -2.90673,5.84539 -4.68619,11.54182 -5.42377,16.97707 -3.33921,24.60684 14.17235,43.89116 36.70393,46.94875 20.06101,2.72234 48.96081,-9.25739 52.64871,-36.43363 z m -46.32501,15.04979 c -10.17874,-1.38129 -18.51241,-11.16745 -16.80927,-23.71793 1.22035,-8.99286 7.82439,-20.57635 22.15368,-18.63182 13.73635,1.86406 17.41833,14.03825 16.09069,23.8217 -1.51539,11.16695 -9.67521,20.1239 -21.4351,18.52805 z"
         id="path300"
         transform="translate(-17.70162,80.478406)" />
      <path
         d="m 632.28152,191.9584 c -15.58344,-0.23927 -31.79846,6.09286 -39.61328,21.5 -1.41929,2.85416 -2.56922,5.67133 -3.46094,8.4414 7.46396,-1.43445 17.98511,-2.83906 30.08203,-2.67578 3.60176,-3.98232 8.93818,-6.57706 16.32813,-5.57422 7.15416,0.97084 11.57989,4.73797 13.99218,9.50782 9.05999,2.33945 18.30694,5.89731 27.30664,11.12109 -0.53374,-16.41319 -10.36573,-38.0693 -38.02148,-41.82227 -2.1741,-0.29503 -4.38708,-0.46386 -6.61328,-0.49804 z"
         style="font-size:96px;font-family:'FOT-Yuruka Std';-inkscape-font-specification:'FOT-Yuruka Std, Normal';white-space:pre;fill:#36bbf2;fill-opacity:1;stroke-width:0;stroke-miterlimit:0"
         id="path288" />
      <path
         style="font-size:96px;font-family:'FOT-Yuruka Std';-inkscape-font-specification:'FOT-Yuruka Std, Normal';white-space:pre;display:inline;fill:#0f5dbc;fill-opacity:1;stroke-width:0;stroke-miterlimit:0"
         d="m 608.9167,194.75684 c 1.152,-0.576 1.824,-1.44 1.824,-2.4 0,-0.672 -0.288,-1.344 -0.96,-2.112 l -12.384,-14.304 c 1.92,-1.824 13.248,-12.768 13.248,-16.032 0,-0.672 -0.384,-1.248 -1.248,-1.92 l -12.576,-9.984 c -1.056,-0.864 -1.92,-1.248 -2.688,-1.248 -0.864,0 -1.536,0.48 -2.208,1.152 l -9.984,10.08 -9.216,-10.752 c -0.864,-1.056 -2.016,-1.728 -3.264,-1.728 -0.672,0 -1.344,0.192 -2.112,0.576 l -14.496,7.488 c -1.152,0.576 -1.92,1.44 -1.92,2.4 0,0.672 0.288,1.44 1.056,2.304 l 12.768,14.88 c -5.664,5.28 -11.904,10.656 -15.168,13.536 -0.768,0.672 -1.056,1.344 -1.056,2.016 0,0.768 0.48,1.632 1.536,2.496 l 11.328,9.12 c 0.672,0.576 1.344,0.768 1.92,0.768 0.96,0 1.824,-0.48 2.88,-1.152 3.744,-2.592 8.832,-6.048 13.44,-9.6 l 9.6,11.136 c 1.056,1.152 1.92,1.632 2.88,1.632 0.768,0 1.632,-0.288 2.784,-0.96 z"
         transform="translate(-12.440503,-3.860846)"
         id="path301" />
      <path
         d="m 538.65652,153.00332 c 2.33331,0.26275 4.77077,0.4757 7.34961,0.62891 21.00883,1.24814 35.36553,7.57391 44.19726,13.21484 3.73889,-3.90421 8,-8.79656 8,-10.79883 0,-0.672 -0.38404,-1.24792 -1.24804,-1.91992 l -12.57422,-9.98438 c -1.056,-0.864 -1.92145,-1.24804 -2.68945,-1.24804 -0.864,0 -1.53504,0.48034 -2.20704,1.15234 l -9.98437,10.08008 -9.2168,-10.75195 c -0.864,-1.056 -2.01567,-1.72852 -3.26367,-1.72852 -0.672,0 -1.34333,0.19217 -2.11133,0.57617 l -14.49609,7.48828 c -1.152,0.576 -1.91992,1.44039 -1.91992,2.40039 0,0.28038 0.0498,0.57683 0.16406,0.89063 z"
         style="font-size:96px;font-family:'FOT-Yuruka Std';-inkscape-font-specification:'FOT-Yuruka Std, Normal';white-space:pre;fill:#3a79da;fill-opacity:1;stroke:none;stroke-width:0;stroke-miterlimit:0;stroke-opacity:1"
         id="path285" />
      <path
         d="m 520.70535,100.84902 c -6.4967,-0.22313 -12.19594,4.48122 -13.08985,11.06641 -0.94187,6.93854 3.9426,13.36095 10.9668,14.31445 6.93854,0.94188 13.36086,-3.94427 14.30273,-10.88281 0.95351,-7.0242 -3.93255,-13.4468 -10.87109,-14.38867 -0.43901,-0.0596 -0.87548,-0.0945 -1.30859,-0.10938 z"
         style="font-size:96px;font-family:'FOT-Yuruka Std';-inkscape-font-specification:'FOT-Yuruka Std, Normal';white-space:pre;fill:#36bbf2;fill-opacity:1;stroke-width:0;stroke-miterlimit:0"
         id="path287" />
      <path
         style="font-size:96px;font-family:'FOT-Yuruka Std';-inkscape-font-specification:'FOT-Yuruka Std, Normal';white-space:pre;display:inline;fill:#3a79da;fill-opacity:1;stroke-width:0;stroke-miterlimit:0"
         d="m 540.08475,200.51684 c 0.96,-0.096 1.824,-0.96 1.824,-1.92 v -0.192 l -2.4,-46.848 c 0,-0.96 -0.864,-1.824 -1.824,-1.824 h -0.192 l -19.2,0.96 c -1.152,0.096 -1.92,0.96 -1.92,2.112 l 2.4,46.752 c 0.096,1.056 0.864,1.92 1.92,1.92 h 0.192 z"
         transform="matrix(0.89230202,0.12112595,-0.12112595,0.89230202,66.338804,-69.746605)"
         id="path303" />
      <path
         d="m 507.09988,146.91934 c 7.33077,1.52534 13.74257,3.12746 20.5664,4.4121 l 1.72071,-20.49414 c 0.11628,-0.85661 -0.5516,-1.73332 -1.40821,-1.84961 l -0.16992,-0.0234 -17.25,-1.46875 c -1.03956,-0.0539 -1.82921,0.62441 -1.96875,1.65234 z"
         style="font-size:96px;font-family:'FOT-Yuruka Std';-inkscape-font-specification:'FOT-Yuruka Std, Normal';white-space:pre;fill:#36bbf2;fill-opacity:1;stroke-width:0;stroke-miterlimit:0"
         id="path283" />
      <path
         style="font-size:96px;font-family:'FOT-Yuruka Std';-inkscape-font-specification:'FOT-Yuruka Std, Normal';white-space:pre;display:inline;fill:#0f5dbc;fill-opacity:1;stroke-width:0;stroke-miterlimit:0"
         d="m 497.7488,201.38084 c 1.344,0 2.4,-0.96 2.4,-2.208 1.344,-17.856 3.936,-72.576 3.936,-75.072 0,-1.152 -0.672,-2.208 -2.208,-2.304 l -18.432,-1.152 h -0.192 c -1.152,0 -2.208,1.056 -2.208,2.208 l -1.152,39.264 c 0,0.768 -0.192,1.344 -0.576,1.344 -0.288,0 -0.576,-0.192 -0.864,-0.768 -9.024,-15.264 -20.832,-34.848 -26.592,-40.608 -0.48,-0.48 -2.4,-1.248 -3.84,-1.248 h -0.192 l -18.72,0.864 c -1.92,0.096 -2.592,2.4 -2.592,3.456 v 0.192 l 4.128,73.632 c 0.096,1.248 1.248,2.784 2.688,2.784 h 0.288 l 17.952,-2.304 c 2.4,-0.288 3.36,-2.208 3.36,-3.264 v -0.096 l -4.896,-40.896 v -0.384 c 0,-0.768 0.192,-1.152 0.672,-1.152 0.288,0 0.672,0.192 1.056,0.768 4.128,5.184 23.328,40.896 25.344,44.064 0.576,0.864 1.44,1.824 2.496,1.824 z"
         transform="matrix(1.2091136,-0.20707243,0.20707243,1.2091136,-148.50884,56.120854)"
         id="path304" />
      <path
         d="m 398.8616,144.22402 c 22.27638,-1.84767 40.01642,-2.54615 54.53906,-2.48633 -11.7342,-13.57069 -24.00937,-27.13532 -30.27734,-31.57031 -0.67977,-0.48098 -3.16122,-1.01107 -4.90235,-0.71289 l -0.23242,0.0391 -22.45508,4.91993 c -2.30162,0.51365 -2.63663,3.43997 -2.41797,4.71679 l 0.0391,0.23242 z"
         style="font-size:96px;font-family:'FOT-Yuruka Std';-inkscape-font-specification:'FOT-Yuruka Std, Normal';white-space:pre;fill:#3a79da;fill-opacity:1;stroke:none;stroke-width:0;stroke-miterlimit:0;stroke-opacity:1"
         id="path281" />
      <path
         d="m 483.87918,99.438867 c -0.11073,0.0024 -0.22448,0.01081 -0.3418,0.02344 l -22.52344,2.423823 -0.23242,0.0391 c -1.3929,0.23855 -2.45144,1.73406 -2.21289,3.12696 l 5.20703,36.86914 c 11.27609,0.36209 20.37834,1.22183 28.16602,2.32422 -2.53972,-21.27745 -4.98325,-40.85189 -5.25782,-42.45508 -0.22364,-1.30584 -1.14386,-2.387904 -2.80468,-2.35156 z"
         style="font-size:96px;font-family:'FOT-Yuruka Std';-inkscape-font-specification:'FOT-Yuruka Std, Normal';white-space:pre;fill:#3a79da;fill-opacity:1;stroke:none;stroke-width:0;stroke-miterlimit:0;stroke-opacity:1"
         id="path279" />
    </g>
    <g
       id="g159"
       transform="matrix(0.12152778,0,0,0.12152778,231.24223,257.08847)"
       inkscape:label="snowflake-1">
      <path
         id="path154"
         style="fill:#0f5dbc;fill-opacity:1"
         transform="rotate(11.083325,-2696.3141,-1926.2219)"
         d="M -142,-24.248711 -290,-280.59223 a 48.497423,48.497423 90 0 1 0,-48.49742 l 100,-173.20509 a 16.165807,16.165807 180 0 1 28,0 L 370,419.1563 a 16.165808,16.165808 120 0 1 -14,24.24871 H 156 A 48.497422,48.497422 30 0 1 114,419.1563 L 14,245.95121 a 16.165807,16.165807 0 0 0 -28,0 L -114,419.1563 a 48.497422,48.497422 150 0 1 -42,24.24871 h -72 a 48.497423,48.497423 30 0 1 -42,-24.24871 l -36,-62.35383 a 48.497423,48.497423 90 0 1 0,-48.49742 L -142,24.248711 a 48.497423,48.497423 90 0 0 0,-48.497422 z"
         inkscape:path-effect="#path-effect269"
         inkscape:original-d="m -128,0 -176,-304.84094 128,-221.70251 560,969.94846 H 128 L 0,221.7025 -128,443.40501 h -128 l -64,-110.85125 z" />
      <path
         id="path155"
         style="fill:#36bbf2;fill-opacity:1"
         transform="rotate(71.083325,-227.92234,-501.0952)"
         d="M -142,-24.248711 -290,-280.59223 a 48.497423,48.497423 90 0 1 0,-48.49742 l 100,-173.20509 a 16.165807,16.165807 -180 0 1 28,0 L 370,419.1563 a 16.165808,16.165808 120 0 1 -14,24.24871 H 156 A 48.497422,48.497422 30 0 1 114,419.1563 L 14,245.95121 a 16.165807,16.165807 0 0 0 -28,0 L -114,419.1563 a 48.497422,48.497422 150 0 1 -42,24.24871 h -72 a 48.497423,48.497423 30 0 1 -42,-24.24871 l -36,-62.35383 a 48.497423,48.497423 90 0 1 0,-48.49742 L -142,24.248711 a 48.497423,48.497423 90 0 0 0,-48.497422 z" />
      <path
         id="path156"
         style="fill:#0f5dbc;fill-opacity:1"
         transform="rotate(131.08332,33.948719,-349.90387)"
         d="M -142,-24.248711 -290,-280.59223 a 48.497423,48.497423 90 0 1 0,-48.49742 l 100,-173.20509 a 16.165807,16.165807 180 0 1 28,0 L 370,419.1563 a 16.165808,16.165808 120 0 1 -14,24.24871 H 156 A 48.497422,48.497422 30 0 1 114,419.1563 L 14,245.95121 a 16.165807,16.165807 0 0 0 -28,0 L -114,419.1563 a 48.497422,48.497422 150 0 1 -42,24.24871 h -72 a 48.497423,48.497423 30 0 1 -42,-24.24871 l -36,-62.35383 a 48.497423,48.497423 90 0 1 0,-48.49742 L -142,24.248711 a 48.497423,48.497423 90 0 0 0,-48.497422 z"
         inkscape:path-effect="#path-effect271"
         inkscape:original-d="m -128,0 -176,-304.84094 128,-221.70251 560,969.94846 H 128 L 0,221.7025 -128,443.40501 h -128 l -64,-110.85125 z" />
      <path
         id="path157"
         style="fill:#36bbf2;fill-opacity:1"
         transform="rotate(-168.91668,186.8878,-261.60445)"
         d="M -142,-24.248711 -290,-280.59223 a 48.497423,48.497423 90 0 1 0,-48.49742 l 100,-173.20509 a 16.165807,16.165807 180 0 1 28,0 L 370,419.1563 a 16.165808,16.165808 120 0 1 -14,24.24871 H 156 A 48.497422,48.497422 30 0 1 114,419.1563 L 14,245.95121 a 16.165807,16.165807 0 0 0 -28,0 L -114,419.1563 a 48.497422,48.497422 150 0 1 -42,24.24871 h -72 a 48.497423,48.497423 30 0 1 -42,-24.24871 l -36,-62.35383 a 48.497423,48.497423 90 0 1 0,-48.49742 L -142,24.248711 a 48.497423,48.497423 90 0 0 0,-48.497422 z"
         inkscape:path-effect="#path-effect273"
         inkscape:original-d="m -128,0 -176,-304.84094 128,-221.70251 560,969.94846 H 128 L 0,221.7025 -128,443.40501 h -128 l -64,-110.85125 z" />
      <path
         id="path158"
         style="display:inline;fill:#0f5dbc;fill-opacity:1"
         inkscape:label="polygon10"
         transform="rotate(-108.91668,357.97778,-162.8256)"
         d="M 114,419.1563 14,245.95121 a 16.165807,16.165807 180 0 0 -28,0 L -114,419.1563 a 48.497422,48.497422 150 0 1 -42,24.24871 h -72 a 48.497423,48.497423 30 0 1 -42,-24.24871 l -36,-62.35383 a 48.497423,48.497423 90 0 1 0,-48.49742 L -142,24.248711 a 48.497423,48.497423 90 0 0 0,-48.497422 L -290,-280.59223 a 48.497423,48.497423 90 0 1 0,-48.49742 l 100,-173.20509 a 16.165807,16.165807 180 0 1 28,0 L 370,419.1563 a 16.165808,16.165808 120 0 1 -14,24.24871 H 156 A 48.497422,48.497422 30 0 1 114,419.1563 Z"
         inkscape:path-effect="#path-effect275"
         inkscape:original-d="M 128,443.40501 0,221.7025 -128,443.40501 H -256 L -320,332.55376 -128,0 -304,-304.84094 -176,-526.54345 384,443.40501 Z" />
      <path
         id="path159"
         style="fill:#36bbf2;fill-opacity:1"
         transform="rotate(-48.916675,769.27584,74.63744)"
         d="M -142,-24.248711 -290,-280.59223 a 48.497423,48.497423 90 0 1 0,-48.49742 l 100,-173.20509 a 16.165807,16.165807 180 0 1 28,0 L 370,419.1563 a 16.165808,16.165808 120 0 1 -14,24.24871 H 156 A 48.497422,48.497422 30 0 1 114,419.1563 L 14,245.95121 a 16.165807,16.165807 0 0 0 -28,0 L -114,419.1563 a 48.497422,48.497422 150 0 1 -42,24.24871 h -72 a 48.497423,48.497423 30 0 1 -42,-24.24871 l -36,-62.35383 a 48.497423,48.497423 90 0 1 0,-48.49742 L -142,24.248711 a 48.497423,48.497423 90 0 0 0,-48.497422 z"
         inkscape:path-effect="#path-effect277"
         inkscape:original-d="m -128,0 -176,-304.84094 128,-221.70251 560,969.94846 H 128 L 0,221.7025 -128,443.40501 h -128 l -64,-110.85125 z" />
    </g>
    <g
       id="g261"
       inkscape:label="{ lib, pkgs, config, ... }:-4"
       style="display:inline;fill:#0f5dbc;fill-opacity:1"
       transform="matrix(0.76606669,-0.29568649,0.29568649,0.76606669,-16.911467,162.84125)">
      <g
         id="g239"
         inkscape:label="}:"
         style="fill:#0f5dbc;fill-opacity:1">
        <g
           id="g237"
           inkscape:label=":"
           style="fill:#0f5dbc;fill-opacity:1">
          <path
             style="font-size:26.6667px;font-family:'FOT-Yuruka Std';-inkscape-font-specification:'FOT-Yuruka Std, Normal';white-space:pre;fill:#3a79da;fill-opacity:1;stroke-width:0;stroke-miterlimit:0"
             d="m 530.43724,442.90024 c 0,-1.84 -1.49334,-3.33334 -3.33334,-3.33334 -1.86667,0 -3.36001,1.49334 -3.36001,3.33334 0,1.84 1.49334,3.33334 3.36001,3.33334 1.84,0 3.33334,-1.49334 3.33334,-3.33334 z"
             transform="translate(28.512736,-25.752469)"
             id="path236" />
          <path
             style="font-size:26.6667px;font-family:'FOT-Yuruka Std';-inkscape-font-specification:'FOT-Yuruka Std, Normal';white-space:pre;fill:#3a79da;fill-opacity:1;stroke-width:0;stroke-miterlimit:0"
             d="m 530.43724,433.83356 c 0,-1.84 -1.49334,-3.33334 -3.33334,-3.33334 -1.86667,0 -3.36001,1.49334 -3.36001,3.33334 0,1.84 1.49334,3.33334 3.36001,3.33334 1.84,0 3.33334,-1.49334 3.33334,-3.33334 z"
             transform="translate(28.512736,-25.752469)"
             id="path237" />
        </g>
        <g
           id="g238"
           inkscape:label="}"
           style="fill:#0f5dbc;fill-opacity:1">
          <path
             style="font-size:26.6667px;font-family:'FOT-Yuruka Std';-inkscape-font-specification:'FOT-Yuruka Std, Normal';white-space:pre;fill:#3a79da;fill-opacity:1;stroke-width:0;stroke-miterlimit:0"
             d="m 511.69051,447.22025 c 0.08,0.18666 0.24,0.26666 0.42666,0.26666 0.08,0 0.13334,-0.0267 0.21334,-0.0267 2.18667,-0.37334 4.77333,-2.37334 4.77333,-5.25334 0,-1.14667 -0.10666,-2.45334 -0.21333,-3.81334 -0.0267,-0.18667 -0.0267,-0.37334 -0.0267,-0.53334 0,-1.30666 0.53334,-1.81333 1.60001,-1.81333 h 0.26666 c 0.26667,0 0.37334,-0.21334 0.4,-0.45334 l 0.0533,-1.41333 v -0.0533 c 0,-0.29334 -0.21334,-0.42667 -0.42667,-0.42667 h -0.0533 c -0.10667,0 -0.21334,0.0267 -0.32,0.0267 -0.96001,0 -1.49334,-0.48 -1.49334,-1.38666 0,-0.16 0.0267,-0.32 0.0533,-0.48 0.24,-1.52001 0.50667,-3.17334 0.50667,-4.66668 0,-2.37333 -2.69333,-4.34667 -5.28,-4.77334 h -0.10667 c -0.21333,0 -0.42667,0.0533 -0.50667,0.26667 l -0.4,3.2 c 0,0.0267 -0.0267,0.0533 -0.0267,0.10667 0,0.18667 0.21333,0.37333 0.45333,0.42667 1.30667,0.32 1.68,1.6 1.68,3.04 0,1.62667 -0.48,1.44 -0.58667,2.18667 -0.0533,0.26667 -0.0533,0.53334 -0.0533,0.77334 0,1.25333 0.53333,2.08 1.30667,2.50667 -0.98667,0.34666 -1.41334,1.14666 -1.41334,2.34667 0,0.21333 0.0267,0.45333 0.0533,0.72 0.10666,0.77333 0.32,0.4 0.32,1.94667 0,1.78667 -0.29334,3.49334 -1.44,3.70667 -0.18667,0.0267 -0.26667,0.16 -0.26667,0.32 0,0.08 0,0.16 0.0533,0.26667 z"
             transform="translate(28.512736,-25.752469)"
             id="path238"
             sodipodi:nodetypes="cscscsssccssssscscsccscscscscscscc" />
        </g>
      </g>
      <g
         id="g241"
         inkscape:label="..."
         style="fill:#0f5dbc;fill-opacity:1">
        <path
           style="font-size:26.6667px;font-family:'FOT-Yuruka Std';-inkscape-font-specification:'FOT-Yuruka Std, Normal';white-space:pre;fill:#3a79da;fill-opacity:1;stroke-width:0;stroke-miterlimit:0"
           d="m 499.55717,442.92691 c 0,-1.84001 -1.49334,-3.36001 -3.33334,-3.36001 -1.86667,0 -3.36,1.52 -3.36,3.36001 0,1.84 1.49333,3.33333 3.36,3.33333 1.84,0 3.33334,-1.49333 3.33334,-3.33333 z"
           transform="translate(28.512736,-25.752469)"
           id="path239" />
        <path
           style="font-size:26.6667px;font-family:'FOT-Yuruka Std';-inkscape-font-specification:'FOT-Yuruka Std, Normal';white-space:pre;fill:#3a79da;fill-opacity:1;stroke-width:0;stroke-miterlimit:0"
           d="m 488.75712,442.92691 c 0,-1.84001 -1.49333,-3.36001 -3.33334,-3.36001 -1.86667,0 -3.36,1.52 -3.36,3.36001 0,1.84 1.49333,3.33333 3.36,3.33333 1.84001,0 3.33334,-1.49333 3.33334,-3.33333 z"
           transform="translate(28.512736,-25.752469)"
           id="path240" />
        <path
           style="font-size:26.6667px;font-family:'FOT-Yuruka Std';-inkscape-font-specification:'FOT-Yuruka Std, Normal';white-space:pre;fill:#3a79da;fill-opacity:1;stroke-width:0;stroke-miterlimit:0"
           d="m 477.9571,442.92691 c 0,-1.84001 -1.49333,-3.36001 -3.33334,-3.36001 -1.86666,0 -3.36,1.52 -3.36,3.36001 0,1.84 1.49334,3.33333 3.36,3.33333 1.84001,0 3.33334,-1.49333 3.33334,-3.33333 z"
           transform="translate(28.512736,-25.752469)"
           id="path241" />
      </g>
      <g
         id="g355"
         style="display:inline;fill:#0f5dbc;fill-opacity:1"
         transform="matrix(1.1361109,0.43851617,-0.43851617,1.1361109,90.621823,-177.58976)"
         inkscape:label="config,">
        <path
           style="font-size:26.6667px;font-family:'FOT-Yuruka Std';-inkscape-font-specification:'FOT-Yuruka Std, Normal';white-space:pre;display:inline;fill:#0f5dbc;fill-opacity:1;stroke-width:0;stroke-miterlimit:0"
           d="m 461.70812,352.78595 c 0.0111,0.0896 0.038,0.22004 0.0853,0.34261 0.0631,0.16343 0.16699,0.3111 0.37453,0.30141 1.24829,0.0111 2.51988,-0.22152 3.70473,-0.67885 3.18684,-1.23006 5.65795,-4.13202 4.82389,-8.78614 -0.59031,-3.29294 -2.00496,-7.0188 -3.35185,-10.62999 -0.11828,-0.30642 -0.42507,-0.49315 -0.75981,-0.38741 -0.47775,0.1609 -3.91474,1.22935 -3.91474,1.22935 l -0.10214,0.0394 c -0.18386,0.071 -0.35195,0.18277 -0.3265,0.43115 -0.93076,-0.0398 -1.94143,0.13909 -2.922,0.51757 -4.3104,1.66373 -4.62216,5.23444 -3.66807,7.70628 1.4666,3.79969 5.27601,5.21639 8.40156,4.00999 0.65372,-0.25232 1.30098,-0.64298 1.8554,-1.0917 0.14052,1.82352 -0.48199,3.19044 -2.19799,3.85278 -0.44942,0.17347 -0.96336,0.30143 -1.57013,0.37132 -0.0408,0.0158 -0.0896,0.0111 -0.13046,0.0269 -0.22471,0.0867 -0.39423,0.31647 -0.37344,0.61358 z m 3.1455,-10.88453 c -0.22435,0.39173 -0.79132,0.86876 -1.28161,1.058 -1.7977,0.69388 -2.77113,-0.8551 -3.07864,-1.65181 -0.44156,-1.14399 -0.12869,-2.46181 1.1583,-2.95857 0.87842,-0.33905 1.87226,-0.13586 2.32457,0.79274 0.35482,0.91928 0.68131,1.82603 0.95587,2.65892 z"
           id="path124-0-7-2" />
        <path
           style="font-size:26.6667px;font-family:'FOT-Yuruka Std';-inkscape-font-specification:'FOT-Yuruka Std, Normal';white-space:pre;display:inline;fill:#0f5dbc;fill-opacity:1;stroke-width:0;stroke-miterlimit:0"
           d="m 456.001,349.91885 c 0.20429,-0.0789 0.31718,-0.33367 0.23833,-0.53796 l -0.0158,-0.0408 -4.35859,-9.77197 c -0.11039,-0.286 -0.34478,-0.40678 -0.78166,-0.26162 l -7.36107,2.39526 c -0.30751,-0.79671 -0.59998,-2.16256 1.42673,-3.29691 0.7953,1.14829 2.27369,1.6339 3.62196,1.11349 1.573,-0.60714 2.36324,-2.39089 1.75609,-3.96388 -0.36271,-0.93972 -1.66048,-2.90335 -6.46117,-1.05038 -3.55455,1.37199 -6.54605,4.26357 -5.42673,8.19731 l 0.17995,0.58776 -1.23682,0.3835 c -0.24514,0.0946 -0.37847,0.35732 -0.29173,0.58204 l 1.06377,3.48574 c 0.0867,0.22471 0.34944,0.35804 0.58204,0.29173 l 1.50239,-0.48601 c 0.99171,2.38691 2.15653,4.91825 3.02674,6.92956 0.13085,0.2781 0.42972,0.4444 0.73615,0.32612 l 0.0408,-0.0158 c 0.46985,-0.18135 3.73339,-1.6992 3.73339,-1.6992 0.26557,-0.1025 0.52791,-0.27418 0.35444,-0.7236 l -0.0394,-0.10214 c -0.88885,-1.81635 -1.98271,-4.16382 -2.90022,-6.2977 l 3.12734,-1.01933 2.87693,6.54142 c 0.10719,0.21681 0.34156,0.3376 0.56628,0.25086 l 0.0408,-0.0158 z"
           id="path125-8-7-6" />
        <path
           d="m 392.60594,404.9905 c -0.90334,-0.37667 -2.17535,-0.66898 -3.65535,-0.66898 -4.4,0 -9.17442,2.42506 -9.17442,8.3984 0,4.69334 3.92043,7.78806 8.34711,7.78806 2.4,0 4.9589,-0.90734 7.11891,-2.96068 0.32,-0.32 0.45467,-0.61356 0.45467,-0.93356 0,-0.18667 -0.0532,-0.3733 -0.13325,-0.5333 -0.42667,-0.88 -0.74633,-1.359 -1.22633,-2.26567 -0.18667,-0.32 -0.40026,-0.42796 -0.58693,-0.42796 -0.24,0 -0.4809,0.13313 -0.6409,0.29313 -1.28,1.17333 -2.61308,1.68221 -3.75975,1.68221 -1.73333,0 -3.0131,-1.17376 -3.0131,-2.96043 0,-2.90667 2.31857,-3.06717 3.0119,-3.06717 0.93334,0 1.8686,0.29235 2.3486,0.69235 0.10667,0.08 0.23949,0.13361 0.34616,0.13361 0.32,0 0.61416,-0.26607 0.72082,-0.58607 l 1.25283,-3.22603 c 0.0267,-0.0533 0.026,-0.13294 0.026,-0.18627 0,-0.33334 -0.53365,-0.79498 -1.43698,-1.17164 z"
           style="font-size:26.6667px;font-family:'FOT-Yuruka Std';-inkscape-font-specification:'FOT-Yuruka Std, Normal';white-space:pre;display:inline;fill:#0f5dbc;fill-opacity:1;stroke-width:0;stroke-miterlimit:0"
           id="path355"
           transform="matrix(0.76606669,-0.29568649,0.29568649,0.76606669,-16.911467,162.84125)" />
        <path
           d="m 408.50347,404.7961 c -0.8742,-0.28641 -1.86258,-0.4494 -2.96758,-0.4494 -4.69334,0 -8.80003,2.85325 -8.80003,8.34659 0,4.69334 3.81423,7.84112 8.16091,7.84112 3.78667,0 9.06665,-2.906 9.06665,-8.10601 0,-2.81667 -1.67175,-6.3912 -5.45995,-7.6323 z m -1.77614,4.72714 c 1.48536,0.65482 1.5559,2.44013 1.5559,2.85179 0,1.52 -0.85268,3.06527 -2.74601,3.06527 -1.52,0 -2.96004,-1.22487 -2.96004,-3.06487 0,-1.2 0.63992,-3.09517 2.87993,-3.09517 0.51,0 0.92745,0.0919 1.27022,0.24298 z"
           style="font-size:26.6667px;font-family:'FOT-Yuruka Std';-inkscape-font-specification:'FOT-Yuruka Std, Normal';white-space:pre;display:inline;fill:#0f5dbc;fill-opacity:1;stroke-width:0;stroke-miterlimit:0"
           id="path353"
           transform="matrix(0.76606669,-0.29568649,0.29568649,0.76606669,-16.911467,162.84125)" />
        <path
           d="m 427.6005,405.05138 c -1.14625,-0.38959 -2.41686,-0.59602 -3.77019,-0.59602 -0.96,0 -1.94609,0.10519 -2.98609,0.31852 l -2.98791,-0.15895 -0.0534,-2.4e-4 c -0.26666,0 -0.50573,0.24055 -0.5324,0.53388 l -0.72209,13.86618 c 0,0.32 0.21585,0.56005 0.53585,0.58672 l 5.33294,0.26607 0.0534,2.4e-4 c 0.26666,0 0.50625,-0.23907 0.50625,-0.50573 l 0.50656,-9.68143 c 1.94667,0.10667 3.30719,1.28101 3.30719,4.08101 l -9e-4,0.90729 c 0,4.74667 4.26635,6.15859 4.74635,6.15859 0.24,0 0.50674,-0.0797 0.77341,-0.29298 0,0 2.64034,-1.89267 2.64034,-1.946 0.18667,-0.13333 0.26659,-0.29291 0.26659,-0.45291 0,-0.29334 -0.26541,-0.56116 -0.42541,-0.6945 -1.09333,-1.01333 -1.43995,-2.2137 -1.43995,-3.70704 l -0.002,-0.88031 c 0,-3.82001 -2.30993,-6.63364 -5.74868,-7.80239 z"
           style="font-size:26.6667px;font-family:'FOT-Yuruka Std';-inkscape-font-specification:'FOT-Yuruka Std, Normal';white-space:pre;display:inline;fill:#0f5dbc;fill-opacity:1;stroke-width:0;stroke-miterlimit:0"
           id="path352"
           transform="matrix(0.76606669,-0.29568649,0.29568649,0.76606669,-16.911467,162.84125)" />
        <path
           d="m 483.10881,414.10862 c -0.395,-0.15917 -0.81181,-0.24088 -1.22514,-0.24088 -1.81334,0 -3.30745,1.41236 -3.30745,3.17236 0,1.73334 1.41368,3.12215 3.20035,3.17548 -0.4,0.74667 -0.88097,1.49309 -1.2543,2.15975 -0.0533,0.08 -0.0519,0.16003 -0.0519,0.24003 0,0.16 0.0792,0.2914 0.23918,0.34473 l 1.22728,0.45331 c 0.0267,0 0.0786,0.028 0.13197,0.028 0.66666,0 3.20074,-3.14782 3.20074,-5.92116 0,-1.76001 -0.97577,-2.93411 -2.16077,-3.41161 z"
           style="font-size:26.6667px;font-family:'FOT-Yuruka Std';-inkscape-font-specification:'FOT-Yuruka Std, Normal';white-space:pre;display:inline;fill:#3a79da;fill-opacity:1;stroke-width:0;stroke-miterlimit:0"
           id="path350"
           transform="matrix(0.76606669,-0.29568649,0.29568649,0.76606669,-16.911467,162.84125)" />
        <path
           d="m 455.27882,347.22341 -3.41407,-7.65429 c -0.11039,-0.28601 -0.34632,-0.40688 -0.7832,-0.26172 l -7.35938,2.39453 c -0.30751,-0.79671 -0.60093,-2.16253 1.42579,-3.29688 0.79529,1.1483 2.27477,1.63369 3.62304,1.11328 1.573,-0.60714 2.36301,-2.38989 1.75586,-3.96289 -0.36271,-0.93971 -1.66024,-2.90375 -6.46094,-1.05078 -3.55454,1.37199 -6.54705,4.26353 -5.42773,8.19727 l 0.17969,0.58789 -1.23633,0.38281 c -0.24514,0.0946 -0.37775,0.35731 -0.29102,0.58203 l 0.61329,2.01172 c 2.75341,0.2908 5.38796,0.50873 7.90625,0.66211 -0.14315,-0.32468 -0.28334,-0.64717 -0.41993,-0.96484 l 3.12696,-1.01953 0.95312,2.16601 c 2.01674,0.0773 3.95266,0.11409 5.8086,0.11328 z"
           style="fill:#3a79da;fill-opacity:1;stroke-width:0.8;stroke-miterlimit:0"
           id="path347" />
        <path
           d="m 466.76919,332.91864 c -0.0597,4.1e-4 -0.12278,0.009 -0.18555,0.0293 -0.47774,0.1609 -3.91406,1.23047 -3.91406,1.23047 l -0.10156,0.0391 c -0.18386,0.071 -0.35358,0.18326 -0.32813,0.43164 -0.93076,-0.0398 -1.9413,0.1391 -2.92187,0.51758 -4.31041,1.66373 -4.62205,5.23324 -3.66797,7.70508 0.9052,2.34521 2.7031,3.78271 4.68164,4.25586 1.22575,-0.0464 2.41124,-0.10912 3.55664,-0.18555 0.0548,-0.0194 0.10971,-0.0396 0.16406,-0.0605 0.65372,-0.25233 1.30105,-0.64308 1.85547,-1.0918 0.0271,0.351 0.026,0.68655 -0.006,1.00195 1.74672,-0.14709 3.39308,-0.3277 4.94141,-0.53125 0.0439,-0.71103 -0.002,-1.47577 -0.14844,-2.29492 -0.59032,-3.29294 -2.00467,-7.01772 -3.35156,-10.62891 -0.0961,-0.24897 -0.31535,-0.4197 -0.57422,-0.41797 z m -4.28125,5.27735 c 0.6094,0.0122 1.17732,0.30885 1.48828,0.94726 0.35482,0.91928 0.68051,1.82531 0.95508,2.65821 l -0.0781,0.10156 c -0.22435,0.39173 -0.79096,0.8674 -1.28125,1.05664 -1.7977,0.69388 -2.77256,-0.85563 -3.08007,-1.65234 -0.44156,-1.14399 -0.12879,-2.46028 1.1582,-2.95703 0.27451,-0.10596 0.56089,-0.15984 0.83789,-0.1543 z"
           style="fill:#3a79da;fill-opacity:1;stroke-width:0.8;stroke-miterlimit:0"
           id="path342" />
      </g>
      <g
         id="g254"
         inkscape:label="pkgs,"
         style="fill:#0f5dbc;fill-opacity:1">
        <g
           id="g249"
           inkscape:label=","
           style="fill:#0f5dbc;fill-opacity:1">
          <path
             style="font-size:26.6667px;font-family:'FOT-Yuruka Std';-inkscape-font-specification:'FOT-Yuruka Std, Normal';white-space:pre;fill:#0f5dbc;fill-opacity:1;stroke-width:0;stroke-miterlimit:0"
             d="m 334.43692,449.16691 c 0.0267,0 0.08,0.0267 0.13333,0.0267 0.66667,0 3.20001,-3.14667 3.20001,-5.92001 0,-2.34667 -1.73334,-3.65333 -3.38667,-3.65333 -1.81334,0 -3.30667,1.41333 -3.30667,3.17333 0,1.73334 1.41333,3.12001 3.2,3.17334 -0.4,0.74667 -0.88,1.49334 -1.25333,2.16 -0.0533,0.08 -0.0533,0.16 -0.0533,0.24 0,0.16 0.08,0.29334 0.24,0.34667 z"
             transform="translate(28.512736,-25.752469)"
             id="path248" />
        </g>
        <g
           id="g250"
           inkscape:label="s"
           style="fill:#0f5dbc;fill-opacity:1">
          <path
             style="font-size:26.6667px;font-family:'FOT-Yuruka Std';-inkscape-font-specification:'FOT-Yuruka Std, Normal';white-space:pre;fill:#0f5dbc;fill-opacity:1;stroke-width:0;stroke-miterlimit:0"
             d="m 319.58356,446.28691 c 3.57334,0 8.34668,-1.70667 8.34668,-4.85334 0,-1.01333 -0.53334,-2.21333 -1.76,-3.54667 -1.01334,-1.12 -1.41334,-1.62667 -1.41334,-2.08 0,-0.53334 0.61334,-1.06667 2.21334,-1.06667 h 0.10666 c 0.34667,0 0.64,-0.10667 0.64,-0.4 0,-0.08 0,-0.16 -0.0533,-0.26667 l -1.2,-3.09334 c -0.18667,-0.48 -0.45333,-0.58666 -1.49334,-0.58666 -3.49333,0 -7.84001,1.6 -7.84001,4.61334 0,1.01333 0.48001,2.16 1.65334,3.49333 l 0.72,0.80001 c 0.37333,0.48 0.72,0.90666 0.72,1.25333 0,0.64 -0.74667,1.38667 -2.32,1.41334 -0.32,0 -0.85334,0.0533 -0.85334,0.45333 0,0.0533 0.0267,0.13333 0.0533,0.21333 l 1.17333,3.09334 c 0.16,0.45333 0.42667,0.56 1.01334,0.56 z"
             transform="translate(28.512736,-25.752469)"
             id="path249" />
        </g>
        <g
           id="g251"
           inkscape:label="g"
           style="fill:#0f5dbc;fill-opacity:1">
          <path
             style="font-size:26.6667px;font-family:'FOT-Yuruka Std';-inkscape-font-specification:'FOT-Yuruka Std, Normal';white-space:pre;fill:#0f5dbc;fill-opacity:1;stroke-width:0;stroke-miterlimit:0"
             d="m 299.93021,451.43358 c -0.0267,0.10667 -0.0533,0.26667 -0.0533,0.42667 0,0.21333 0.0533,0.42667 0.29333,0.50667 1.41334,0.56 2.96001,0.85333 4.50667,0.85333 4.16001,0 8.24001,-2.21333 9.33335,-7.86667 0.77333,-4.00001 0.8,-8.85335 0.85333,-13.54669 0,-0.4 -0.26666,-0.74667 -0.69333,-0.77333 -0.61333,-0.0267 -4.98667,-0.32 -4.98667,-0.32 h -0.13334 c -0.24,0 -0.48,0.0533 -0.56,0.34666 -1.04,-0.45333 -2.26667,-0.69333 -3.54667,-0.69333 -5.62667,0 -7.54667,3.92001 -7.54667,7.14668 0,4.96 3.70667,8.24001 7.78667,8.24001 0.85334,0 1.76,-0.16 2.58667,-0.42667 -0.64,2.13334 -1.94667,3.41334 -4.18667,3.41334 -0.58667,0 -1.22667,-0.08 -1.94667,-0.26667 -0.0533,0 -0.10667,-0.0267 -0.16,-0.0267 -0.29333,0 -0.58667,0.18667 -0.69333,0.53334 z m 8.34668,-10.98668 c -0.42667,0.34667 -1.28,0.64 -1.92,0.64 -2.34667,0 -2.77334,-2.18667 -2.77334,-3.22667 0,-1.49333 0.93333,-2.85333 2.61334,-2.85333 1.14666,0 2.18667,0.66666 2.29333,1.92 0,1.2 -0.0267,2.37334 -0.08,3.44 z"
             transform="translate(28.512736,-25.752469)"
             id="path250" />
        </g>
        <g
           id="g252"
           inkscape:label="k"
           style="fill:#0f5dbc;fill-opacity:1">
          <path
             style="font-size:26.6667px;font-family:'FOT-Yuruka Std';-inkscape-font-specification:'FOT-Yuruka Std, Normal';white-space:pre;fill:#0f5dbc;fill-opacity:1;stroke-width:0;stroke-miterlimit:0"
             d="m 296.03687,442.58024 c 0.13333,-0.21333 0.18666,-0.37333 0.18666,-0.53333 0,-0.98667 -3.89334,-3.84001 -5.76001,-4.42668 1.60001,-0.88 3.12001,-1.70667 3.78668,-2.02667 0.32,-0.16 0.48,-0.4 0.48,-0.66666 0,-0.16 -0.0533,-0.32 -0.16,-0.48 l -2.21334,-3.60001 c -0.21333,-0.34667 -0.45333,-0.45333 -0.66667,-0.45333 -1.17333,0 -5.76,3.41333 -6.85334,4.26667 l -0.58667,-11.33335 c -0.0267,-0.29333 -0.24,-0.53333 -0.53333,-0.53333 h -0.0533 l -5.33334,0.26666 c -0.26667,0.0267 -0.50667,0.26667 -0.50667,0.53334 v 0.0533 l 1.12,21.7867 c 0.0267,0.32 0.29333,0.53333 0.58667,0.53333 l 5.33334,-0.29333 c 0.32,0 0.53333,-0.26667 0.53333,-0.58667 l -0.24,-4.56001 0.16,-0.08 c 0.53334,-0.26666 1.76,-0.93333 3.12001,-1.70667 l -1.97334,2.37334 c -0.13333,0.16 -0.18667,0.29333 -0.18667,0.42667 0,0.24 0.16,0.45333 0.32,0.56 1.36,0.85333 4.69334,2.90667 6.16001,3.86667 0.16,0.10667 0.32,0.16 0.45333,0.16 0.26667,0 0.48001,-0.16 0.69334,-0.45333 z"
             transform="translate(28.512736,-25.752469)"
             id="path251" />
        </g>
        <g
           id="g253"
           inkscape:label="p"
           style="fill:#0f5dbc;fill-opacity:1">
          <path
             style="font-size:26.6667px;font-family:'FOT-Yuruka Std';-inkscape-font-specification:'FOT-Yuruka Std, Normal';white-space:pre;fill:#0f5dbc;fill-opacity:1;stroke-width:0;stroke-miterlimit:0"
             d="m 262.6235,453.08692 c 0.32,0 0.56,-0.21333 0.58667,-0.53333 l 0.34666,-6.64001 c 0.98667,0.32 2.08001,0.48 3.20001,0.48 5.04,0 8.48001,-3.06667 8.48001,-7.92001 0,-4.85334 -4.21334,-8.26668 -8.90668,-8.26668 -1.12,0 -2.29334,0.21333 -3.44,0.64 l -4.45334,-0.24 h -0.0533 c -0.26666,0 -0.50666,0.24 -0.53333,0.53333 l -1.06667,21.0667 v 0.0533 c 0,0.29334 0.24,0.53334 0.50667,0.53334 z m 1.46667,-17.46669 c 0.45333,-0.13333 0.90667,-0.21333 1.33333,-0.21333 1.86667,0 3.25334,1.28 3.25334,3.12 0,2.93334 -2.56,2.93334 -2.77334,2.93334 -0.74666,0 -1.52,-0.21334 -2.10667,-0.50667 z"
             transform="translate(28.512736,-25.752469)"
             id="path252" />
        </g>
      </g>
      <g
         id="g259"
         inkscape:label="lib,"
         style="fill:#0f5dbc;fill-opacity:1">
        <g
           id="g255"
           inkscape:label=","
           style="fill:#0f5dbc;fill-opacity:1">
          <path
             style="font-size:26.6667px;font-family:'FOT-Yuruka Std';-inkscape-font-specification:'FOT-Yuruka Std, Normal';white-space:pre;fill:#0f5dbc;fill-opacity:1;stroke-width:0;stroke-miterlimit:0"
             d="m 239.53013,449.16691 c 0.0267,0 0.08,0.0267 0.13334,0.0267 0.66666,0 3.2,-3.14667 3.2,-5.92001 0,-2.34667 -1.73334,-3.65333 -3.38667,-3.65333 -1.81334,0 -3.30667,1.41333 -3.30667,3.17333 0,1.73334 1.41333,3.12001 3.2,3.17334 -0.4,0.74667 -0.88,1.49334 -1.25333,2.16 -0.0533,0.08 -0.0533,0.16 -0.0533,0.24 0,0.16 0.08,0.29334 0.24,0.34667 z"
             transform="translate(28.512736,-25.752469)"
             id="path254" />
        </g>
        <g
           id="g256"
           inkscape:label="b"
           style="fill:#0f5dbc;fill-opacity:1">
          <path
             style="font-size:26.6667px;font-family:'FOT-Yuruka Std';-inkscape-font-specification:'FOT-Yuruka Std, Normal';white-space:pre;fill:#0f5dbc;fill-opacity:1;stroke-width:0;stroke-miterlimit:0"
             d="m 220.91678,445.72691 c 1.14667,0.42667 2.29334,0.64 3.44001,0.64 4.66667,0 8.90667,-3.41334 8.90667,-8.26668 0,-4.8 -3.36,-7.92001 -8.48001,-7.92001 -1.12,0 -2.21333,0.16 -3.22667,0.48 l -0.37333,-7.33334 c -0.0267,-0.29333 -0.24,-0.53333 -0.53333,-0.53333 h -0.0533 l -5.33334,0.26666 c -0.26667,0.0267 -0.50667,0.26667 -0.50667,0.53334 v 0.0533 l 1.12001,21.7867 c 0.0267,0.32 0.29333,0.53333 0.58666,0.53333 z m 0.90667,-9.94668 c 0.58667,-0.29333 1.36,-0.53333 2.13334,-0.53333 2.18667,0 2.74667,1.81333 2.74667,2.96 0,1.81334 -1.41334,3.09334 -3.28001,3.09334 -0.42667,0 -0.85333,-0.0533 -1.30667,-0.18667 z"
             transform="translate(28.512736,-25.752469)"
             id="path255" />
        </g>
        <g
           id="g257"
           inkscape:label="i"
           style="fill:#0f5dbc;fill-opacity:1">
          <path
             style="font-size:26.6667px;font-family:'FOT-Yuruka Std';-inkscape-font-specification:'FOT-Yuruka Std, Normal';white-space:pre;display:inline;fill:#0f5dbc;fill-opacity:1;stroke-width:0;stroke-miterlimit:0"
             d="m 211.31679,445.70024 c 0.26666,-0.0267 0.50666,-0.26666 0.50666,-0.53333 v -0.0533 l -0.66666,-13.01335 c 0,-0.26667 -0.24,-0.50667 -0.50667,-0.50667 h -0.0533 l -5.33334,0.26667 c -0.32,0.0267 -0.53333,0.26666 -0.53333,0.58666 l 0.66667,12.98669 c 0.0267,0.29333 0.24,0.53333 0.53333,0.53333 h 0.0533 z"
             transform="translate(28.512736,-25.752469)"
             id="path256" />
          <path
             style="font-size:26.6667px;font-family:'FOT-Yuruka Std';-inkscape-font-specification:'FOT-Yuruka Std, Normal';white-space:pre;fill:#0f5dbc;fill-opacity:1;stroke-width:0;stroke-miterlimit:0"
             d="m 211.58345,427.22022 c 0,-2.18667 -1.76,-3.94667 -3.92,-3.94667 -2.18667,0 -3.94667,1.76 -3.94667,3.94667 0,2.16 1.76,3.92 3.94667,3.92 2.16,0 3.92,-1.76 3.92,-3.92 z"
             transform="translate(28.512736,-25.752469)"
             id="path257" />
        </g>
        <g
           id="g258"
           inkscape:label="l"
           style="fill:#0f5dbc;fill-opacity:1">
          <path
             style="font-size:26.6667px;font-family:'FOT-Yuruka Std';-inkscape-font-specification:'FOT-Yuruka Std, Normal';white-space:pre;fill:#0f5dbc;fill-opacity:1;stroke-width:0;stroke-miterlimit:0"
             d="m 200.27679,445.80691 c 0.29333,0 0.53333,-0.24 0.53333,-0.53333 v -21.7867 c 0,-0.32 -0.24,-0.56 -0.53333,-0.56 h -5.36001 c -0.29333,0 -0.53333,0.24 -0.53333,0.56 v 21.7867 c 0,0.29333 0.24,0.53333 0.53333,0.53333 z"
             transform="translate(28.512736,-25.752469)"
             id="path258" />
        </g>
      </g>
      <g
         id="g260"
         inkscape:label="{"
         style="fill:#0f5dbc;fill-opacity:1">
        <path
           style="font-size:26.6667px;font-family:'FOT-Yuruka Std';-inkscape-font-specification:'FOT-Yuruka Std, Normal';white-space:pre;fill:#0f5dbc;fill-opacity:1;stroke-width:0;stroke-miterlimit:0"
           d="m 182.83676,444.23358 c 0.0533,-0.10667 0.0533,-0.18667 0.0533,-0.26667 0,-0.16 -0.08,-0.29333 -0.26667,-0.32 -1.14667,-0.21333 -1.44,-1.89334 -1.44,-3.68 0,-1.54667 0.24,-1.20001 0.32,-1.97334 0.0267,-0.26667 0.0533,-0.50667 0.0533,-0.72 0,-1.20001 -0.42666,-2.00001 -1.41333,-2.34667 0.8,-0.42667 1.33333,-1.28001 1.33333,-2.56001 0,-0.21333 -0.0267,-0.45333 -0.0533,-0.72 -0.10667,-0.74667 -0.58667,-0.56 -0.58667,-2.18667 0,-1.44 0.37334,-2.72 1.68001,-3.04 0.21333,-0.0533 0.42666,-0.24 0.42666,-0.42667 0,-0.0533 -0.0267,-0.08 -0.0267,-0.10667 l -0.37334,-3.2 c -0.08,-0.21333 -0.32,-0.26667 -0.53333,-0.26667 h -0.10667 c -2.58667,0.42667 -5.28,2.37334 -5.28,4.74668 0,1.49333 0.29333,3.14667 0.53333,4.69334 0.0267,0.16 0.0267,0.32 0.0267,0.45333 0,0.93333 -0.50667,1.41333 -1.46667,1.41333 -0.10667,0 -0.21333,-0.0267 -0.32,-0.0267 h -0.0533 c -0.24001,0 -0.45334,0.13333 -0.45334,0.42667 v 0.0533 l 0.08,1.41333 c 0,0.24 0.13333,0.45334 0.4,0.45334 h 0.26667 c 1.04,0 1.6,0.50667 1.6,1.84 0,0.16 0,0.32 -0.0267,0.50667 -0.13333,1.41333 -0.21333,2.72 -0.21333,3.86667 0,2.85334 2.56,4.85334 4.74667,5.20001 0.08,0 0.13333,0.0267 0.21333,0.0267 0.18667,0 0.34667,-0.08 0.42667,-0.26666 z"
           transform="translate(28.512736,-25.752469)"
           id="path259"
           sodipodi:nodetypes="cscscscscscsccscscsssssccssscscscc" />
      </g>
    </g>
    <g
       id="g267"
       style="display:inline"
       transform="translate(6.8882601,3.9942442)">
      <g
         id="g263"
         style="fill:url(#linearGradient355)"
         transform="matrix(0.70229219,0,0,0.70229219,315.03207,47.296863)">
        <rect
           style="fill:#36bbf2;fill-opacity:1;stroke-width:0;stroke-miterlimit:0"
           id="rect261"
           width="10.53408"
           height="61.80011"
           x="46.763329"
           y="355.87234"
           ry="3.5113697" />
        <rect
           style="display:inline;fill:#36bbf2;fill-opacity:1;stroke-width:0;stroke-miterlimit:0"
           id="rect262"
           width="10.53408"
           height="61.80011"
           x="355.70288"
           y="117.42651"
           ry="3.5113697"
           transform="rotate(60)" />
        <rect
           style="display:inline;fill:#36bbf2;fill-opacity:1;stroke-width:0;stroke-miterlimit:0"
           id="rect263"
           width="10.53408"
           height="61.80011"
           x="303.67249"
           y="-269.34589"
           ry="3.5113697"
           transform="rotate(120)" />
      </g>
      <g
         id="g266"
         style="display:inline;fill:url(#linearGradient9-0)"
         transform="matrix(0.28791371,0.16622705,-0.16622705,0.28791371,378.80513,229.5523)">
        <rect
           style="display:inline;fill:#0f5dbc;fill-opacity:1;stroke-width:0;stroke-miterlimit:0"
           id="rect264"
           width="14.603115"
           height="61.800117"
           x="352.7905"
           y="118.94698"
           ry="3.5113702"
           transform="rotate(60.000001)" />
        <rect
           style="display:inline;fill:#0f5dbc;fill-opacity:1;stroke-width:0;stroke-miterlimit:0"
           id="rect265"
           width="14.603115"
           height="61.800117"
           x="302.51584"
           y="-267.82541"
           ry="3.5113702"
           transform="rotate(120)" />
        <rect
           style="display:inline;fill:#0f5dbc;fill-opacity:1;stroke-width:0;stroke-miterlimit:0"
           id="rect266"
           width="14.603115"
           height="61.800117"
           x="-57.576233"
           y="-417.67245"
           ry="3.5113702"
           transform="scale(-1)" />
      </g>
    </g>
  </g>
</svg>
